<svg width="197" height="27" viewBox="0 0 197 27" fill="none" xmlns="http://www.w3.org/2000/svg">
<line x1="1.2" y1="8" x2="1.2" y2="18" stroke="#003468" stroke-width="0.4"/>
<path d="M0.399902 12.2001C0.178988 12.2001 -9.76429e-05 12.3792 -9.76622e-05 12.6001C-9.76815e-05 12.821 0.178988 13.0001 0.399902 13.0001L0.399902 12.2001ZM16.5999 13.0001L16.9999 13.0001L16.9999 12.2001L16.5999 12.2001L16.5999 13.0001ZM0.399902 13.0001L16.5999 13.0001L16.5999 12.2001L0.399902 12.2001L0.399902 13.0001Z" fill="#003468"/>
<path d="M3.04395 4.8457C3.04395 5.10547 2.9834 5.32617 2.8623 5.50781C2.74316 5.6875 2.58105 5.82422 2.37598 5.91797C2.17285 6.01172 1.94336 6.05859 1.6875 6.05859C1.43164 6.05859 1.20117 6.01172 0.996094 5.91797C0.791016 5.82422 0.628906 5.6875 0.509766 5.50781C0.390625 5.32617 0.331055 5.10547 0.331055 4.8457C0.331055 4.67578 0.363281 4.52051 0.427734 4.37988C0.494141 4.2373 0.586914 4.11328 0.706055 4.00781C0.827148 3.90234 0.969727 3.82129 1.13379 3.76465C1.2998 3.70605 1.48242 3.67676 1.68164 3.67676C1.94336 3.67676 2.17676 3.72754 2.38184 3.8291C2.58691 3.92871 2.74805 4.06641 2.86523 4.24219C2.98438 4.41797 3.04395 4.61914 3.04395 4.8457ZM2.49902 4.83398C2.49902 4.67578 2.46484 4.53613 2.39648 4.41504C2.32812 4.29199 2.23242 4.19629 2.10938 4.12793C1.98633 4.05957 1.84375 4.02539 1.68164 4.02539C1.51562 4.02539 1.37207 4.05957 1.25098 4.12793C1.13184 4.19629 1.03906 4.29199 0.972656 4.41504C0.90625 4.53613 0.873047 4.67578 0.873047 4.83398C0.873047 4.99805 0.905273 5.13867 0.969727 5.25586C1.03613 5.37109 1.12988 5.45996 1.25098 5.52246C1.37402 5.58301 1.51953 5.61328 1.6875 5.61328C1.85547 5.61328 2 5.58301 2.12109 5.52246C2.24219 5.45996 2.33496 5.37109 2.39941 5.25586C2.46582 5.13867 2.49902 4.99805 2.49902 4.83398ZM2.94434 2.84473C2.94434 3.05176 2.88965 3.23828 2.78027 3.4043C2.6709 3.57031 2.52148 3.70117 2.33203 3.79688C2.14258 3.89258 1.92773 3.94043 1.6875 3.94043C1.44336 3.94043 1.22559 3.89258 1.03418 3.79688C0.844727 3.70117 0.696289 3.57031 0.588867 3.4043C0.481445 3.23828 0.427734 3.05176 0.427734 2.84473C0.427734 2.59668 0.481445 2.38574 0.588867 2.21191C0.698242 2.03809 0.847656 1.90527 1.03711 1.81348C1.22656 1.72168 1.44238 1.67578 1.68457 1.67578C1.92871 1.67578 2.14551 1.72168 2.33496 1.81348C2.52441 1.90527 2.67285 2.03809 2.78027 2.21191C2.88965 2.38574 2.94434 2.59668 2.94434 2.84473ZM2.40234 2.85352C2.40234 2.71094 2.37207 2.58496 2.31152 2.47559C2.25098 2.36621 2.16699 2.28027 2.05957 2.21777C1.95215 2.15332 1.82715 2.12109 1.68457 2.12109C1.54199 2.12109 1.41699 2.15137 1.30957 2.21191C1.2041 2.27051 1.12109 2.35449 1.06055 2.46387C1.00195 2.57324 0.972656 2.70312 0.972656 2.85352C0.972656 3 1.00195 3.12793 1.06055 3.2373C1.12109 3.34668 1.20508 3.43164 1.3125 3.49219C1.41992 3.55273 1.54492 3.58301 1.6875 3.58301C1.83008 3.58301 1.9541 3.55273 2.05957 3.49219C2.16699 3.43164 2.25098 3.34668 2.31152 3.2373C2.37207 3.12793 2.40234 3 2.40234 2.85352Z" fill="#003468"/>
<line x1="17.2" y1="8" x2="17.2" y2="18" stroke="#003468" stroke-width="0.4"/>
<line x1="17.4" y1="12.6" x2="32.6" y2="12.6" stroke="#003468" stroke-width="0.8" stroke-linecap="square"/>
<path d="M16.8936 5.5459H16.9492C17.2617 5.5459 17.5156 5.50195 17.7109 5.41406C17.9062 5.32617 18.0566 5.20801 18.1621 5.05957C18.2676 4.91113 18.3398 4.74414 18.3789 4.55859C18.418 4.37109 18.4375 4.17871 18.4375 3.98145V3.32812C18.4375 3.13477 18.415 2.96289 18.3701 2.8125C18.3271 2.66211 18.2666 2.53613 18.1885 2.43457C18.1123 2.33301 18.0254 2.25586 17.9277 2.20312C17.8301 2.15039 17.7266 2.12402 17.6172 2.12402C17.4922 2.12402 17.3799 2.14941 17.2803 2.2002C17.1826 2.24902 17.0996 2.31836 17.0312 2.4082C16.9648 2.49805 16.9141 2.60352 16.8789 2.72461C16.8438 2.8457 16.8262 2.97754 16.8262 3.12012C16.8262 3.24707 16.8418 3.37012 16.873 3.48926C16.9043 3.6084 16.9521 3.71582 17.0166 3.81152C17.0811 3.90723 17.1611 3.9834 17.2568 4.04004C17.3545 4.09473 17.4688 4.12207 17.5996 4.12207C17.7207 4.12207 17.834 4.09863 17.9395 4.05176C18.0469 4.00293 18.1416 3.9375 18.2236 3.85547C18.3076 3.77148 18.374 3.67676 18.4229 3.57129C18.4736 3.46582 18.5029 3.35547 18.5107 3.24023H18.7686C18.7686 3.40234 18.7363 3.5625 18.6719 3.7207C18.6094 3.87695 18.5215 4.01953 18.4082 4.14844C18.2949 4.27734 18.1621 4.38086 18.0098 4.45898C17.8574 4.53516 17.6914 4.57324 17.5117 4.57324C17.3008 4.57324 17.1182 4.53223 16.9639 4.4502C16.8096 4.36816 16.6826 4.25879 16.583 4.12207C16.4854 3.98535 16.4121 3.83301 16.3633 3.66504C16.3164 3.49512 16.293 3.32324 16.293 3.14941C16.293 2.94629 16.3213 2.75586 16.3779 2.57812C16.4346 2.40039 16.5186 2.24414 16.6299 2.10938C16.7412 1.97266 16.8789 1.86621 17.043 1.79004C17.209 1.71387 17.4004 1.67578 17.6172 1.67578C17.8613 1.67578 18.0693 1.72461 18.2412 1.82227C18.4131 1.91992 18.5527 2.05078 18.6602 2.21484C18.7695 2.37891 18.8496 2.56348 18.9004 2.76855C18.9512 2.97363 18.9766 3.18457 18.9766 3.40137V3.59766C18.9766 3.81836 18.9619 4.04297 18.9326 4.27148C18.9053 4.49805 18.8516 4.71484 18.7715 4.92188C18.6934 5.12891 18.5791 5.31445 18.4287 5.47852C18.2783 5.64062 18.082 5.76953 17.8398 5.86523C17.5996 5.95898 17.3027 6.00586 16.9492 6.00586H16.8936V5.5459Z" fill="#003468"/>
<line x1="33.2" y1="8" x2="33.2" y2="18" stroke="#003468" stroke-width="0.4"/>
<line x1="33.4" y1="12.6" x2="48.6" y2="12.6" stroke="#003468" stroke-width="0.8" stroke-linecap="square"/>
<path d="M32.1357 1.71094V6H31.5938V2.3877L30.501 2.78613V2.29688L32.0508 1.71094H32.1357ZM36.4072 3.52734V4.17773C36.4072 4.52734 36.376 4.82227 36.3135 5.0625C36.251 5.30273 36.1611 5.49609 36.0439 5.64258C35.9268 5.78906 35.7852 5.89551 35.6191 5.96191C35.4551 6.02637 35.2695 6.05859 35.0625 6.05859C34.8984 6.05859 34.7471 6.03809 34.6084 5.99707C34.4697 5.95605 34.3447 5.89062 34.2334 5.80078C34.124 5.70898 34.0303 5.58984 33.9521 5.44336C33.874 5.29688 33.8145 5.11914 33.7734 4.91016C33.7324 4.70117 33.7119 4.45703 33.7119 4.17773V3.52734C33.7119 3.17773 33.7432 2.88477 33.8057 2.64844C33.8701 2.41211 33.9609 2.22266 34.0781 2.08008C34.1953 1.93555 34.3359 1.83203 34.5 1.76953C34.666 1.70703 34.8516 1.67578 35.0566 1.67578C35.2227 1.67578 35.375 1.69629 35.5137 1.7373C35.6543 1.77637 35.7793 1.83984 35.8887 1.92773C35.998 2.01367 36.0908 2.12891 36.167 2.27344C36.2451 2.41602 36.3047 2.59082 36.3457 2.79785C36.3867 3.00488 36.4072 3.24805 36.4072 3.52734ZM35.8623 4.26562V3.43652C35.8623 3.24512 35.8506 3.07715 35.8271 2.93262C35.8057 2.78613 35.7734 2.66113 35.7305 2.55762C35.6875 2.4541 35.6328 2.37012 35.5664 2.30566C35.502 2.24121 35.4268 2.19434 35.3408 2.16504C35.2568 2.13379 35.1621 2.11816 35.0566 2.11816C34.9277 2.11816 34.8135 2.14258 34.7139 2.19141C34.6143 2.23828 34.5303 2.31348 34.4619 2.41699C34.3955 2.52051 34.3447 2.65625 34.3096 2.82422C34.2744 2.99219 34.2568 3.19629 34.2568 3.43652V4.26562C34.2568 4.45703 34.2676 4.62598 34.2891 4.77246C34.3125 4.91895 34.3467 5.0459 34.3916 5.15332C34.4365 5.25879 34.4912 5.3457 34.5557 5.41406C34.6201 5.48242 34.6943 5.5332 34.7783 5.56641C34.8643 5.59766 34.959 5.61328 35.0625 5.61328C35.1953 5.61328 35.3115 5.58789 35.4111 5.53711C35.5107 5.48633 35.5938 5.40723 35.6602 5.2998C35.7285 5.19043 35.7793 5.05078 35.8125 4.88086C35.8457 4.70898 35.8623 4.50391 35.8623 4.26562Z" fill="#003468"/>
<line x1="49.2" y1="8" x2="49.2" y2="18" stroke="#003468" stroke-width="0.4"/>
<line x1="49.4" y1="12.6" x2="64.6" y2="12.6" stroke="#003468" stroke-width="0.8" stroke-linecap="square"/>
<path d="M48.1357 1.71094V6H47.5938V2.3877L46.501 2.78613V2.29688L48.0508 1.71094H48.1357ZM51.5107 1.71094V6H50.9688V2.3877L49.876 2.78613V2.29688L51.4258 1.71094H51.5107Z" fill="#003468"/>
<line x1="65.2" y1="8" x2="65.2" y2="18" stroke="#003468" stroke-width="0.4"/>
<line x1="65.4" y1="12.6" x2="80.6" y2="12.6" stroke="#003468" stroke-width="0.8" stroke-linecap="square"/>
<path d="M64.1357 1.71094V6H63.5938V2.3877L62.501 2.78613V2.29688L64.0508 1.71094H64.1357ZM68.5244 5.55469V6H65.7324V5.61035L67.1299 4.05469C67.3018 3.86328 67.4346 3.70117 67.5283 3.56836C67.624 3.43359 67.6904 3.31348 67.7275 3.20801C67.7666 3.10059 67.7861 2.99121 67.7861 2.87988C67.7861 2.73926 67.7568 2.6123 67.6982 2.49902C67.6416 2.38379 67.5576 2.29199 67.4463 2.22363C67.335 2.15527 67.2002 2.12109 67.042 2.12109C66.8525 2.12109 66.6943 2.1582 66.5674 2.23242C66.4424 2.30469 66.3486 2.40625 66.2861 2.53711C66.2236 2.66797 66.1924 2.81836 66.1924 2.98828H65.6504C65.6504 2.74805 65.7031 2.52832 65.8086 2.3291C65.9141 2.12988 66.0703 1.97168 66.2773 1.85449C66.4844 1.73535 66.7393 1.67578 67.042 1.67578C67.3115 1.67578 67.542 1.72363 67.7334 1.81934C67.9248 1.91309 68.0713 2.0459 68.1729 2.21777C68.2764 2.3877 68.3281 2.58691 68.3281 2.81543C68.3281 2.94043 68.3066 3.06738 68.2637 3.19629C68.2227 3.32324 68.165 3.4502 68.0908 3.57715C68.0186 3.7041 67.9336 3.8291 67.8359 3.95215C67.7402 4.0752 67.6377 4.19629 67.5283 4.31543L66.3857 5.55469H68.5244Z" fill="#003468"/>
<line x1="81.2" y1="8" x2="81.2" y2="18" stroke="#003468" stroke-width="0.4"/>
<line x1="81.4" y1="12.6" x2="96.6" y2="12.6" stroke="#003468" stroke-width="0.8" stroke-linecap="square"/>
<path d="M80.1357 1.71094V6H79.5938V2.3877L78.501 2.78613V2.29688L80.0508 1.71094H80.1357ZM82.5205 3.60059H82.9072C83.0967 3.60059 83.2529 3.56934 83.376 3.50684C83.501 3.44238 83.5938 3.35547 83.6543 3.24609C83.7168 3.13477 83.748 3.00977 83.748 2.87109C83.748 2.70703 83.7207 2.56934 83.666 2.45801C83.6113 2.34668 83.5293 2.2627 83.4199 2.20605C83.3105 2.14941 83.1719 2.12109 83.0039 2.12109C82.8516 2.12109 82.7168 2.15137 82.5996 2.21191C82.4844 2.27051 82.3936 2.35449 82.3271 2.46387C82.2627 2.57324 82.2305 2.70215 82.2305 2.85059H81.6885C81.6885 2.63379 81.7432 2.43652 81.8525 2.25879C81.9619 2.08105 82.1152 1.93945 82.3125 1.83398C82.5117 1.72852 82.7422 1.67578 83.0039 1.67578C83.2617 1.67578 83.4873 1.72168 83.6807 1.81348C83.874 1.90332 84.0244 2.03809 84.1318 2.21777C84.2393 2.39551 84.293 2.61719 84.293 2.88281C84.293 2.99023 84.2676 3.10547 84.2168 3.22852C84.168 3.34961 84.0908 3.46289 83.9854 3.56836C83.8818 3.67383 83.7471 3.76074 83.5811 3.8291C83.415 3.89551 83.2158 3.92871 82.9834 3.92871H82.5205V3.60059ZM82.5205 4.0459V3.7207H82.9834C83.2549 3.7207 83.4795 3.75293 83.6572 3.81738C83.835 3.88184 83.9746 3.96777 84.0762 4.0752C84.1797 4.18262 84.252 4.30078 84.293 4.42969C84.3359 4.55664 84.3574 4.68359 84.3574 4.81055C84.3574 5.00977 84.3232 5.18652 84.2549 5.34082C84.1885 5.49512 84.0938 5.62598 83.9707 5.7334C83.8496 5.84082 83.707 5.92188 83.543 5.97656C83.3789 6.03125 83.2002 6.05859 83.0068 6.05859C82.8213 6.05859 82.6465 6.03223 82.4824 5.97949C82.3203 5.92676 82.1768 5.85059 82.0518 5.75098C81.9268 5.64941 81.8291 5.52539 81.7588 5.37891C81.6885 5.23047 81.6533 5.06152 81.6533 4.87207H82.1953C82.1953 5.02051 82.2275 5.15039 82.292 5.26172C82.3584 5.37305 82.4521 5.45996 82.5732 5.52246C82.6963 5.58301 82.8408 5.61328 83.0068 5.61328C83.1729 5.61328 83.3154 5.58496 83.4346 5.52832C83.5557 5.46973 83.6484 5.38184 83.7129 5.26465C83.7793 5.14746 83.8125 5 83.8125 4.82227C83.8125 4.64453 83.7754 4.49902 83.7012 4.38574C83.627 4.27051 83.5215 4.18555 83.3848 4.13086C83.25 4.07422 83.0908 4.0459 82.9072 4.0459H82.5205Z" fill="#003468"/>
<line x1="97.2" y1="8" x2="97.2" y2="18" stroke="#003468" stroke-width="0.4"/>
<line x1="97.4" y1="12.6" x2="112.6" y2="12.6" stroke="#003468" stroke-width="0.8" stroke-linecap="square"/>
<path d="M96.1357 1.71094V6H95.5938V2.3877L94.501 2.78613V2.29688L96.0508 1.71094H96.1357ZM100.612 4.56445V5.00977H97.5303V4.69043L99.4404 1.73438H99.8828L99.4082 2.58984L98.1455 4.56445H100.612ZM100.018 1.73438V6H99.4756V1.73438H100.018Z" fill="#003468"/>
<line x1="113.2" y1="8" x2="113.2" y2="18" stroke="#003468" stroke-width="0.4"/>
<line x1="113.4" y1="12.6" x2="128.6" y2="12.6" stroke="#003468" stroke-width="0.8" stroke-linecap="square"/>
<path d="M112.136 1.71094V6H111.594V2.3877L110.501 2.78613V2.29688L112.051 1.71094H112.136ZM114.415 3.96973L113.981 3.8584L114.195 1.73438H116.384V2.23535H114.655L114.526 3.39551C114.604 3.35059 114.703 3.30859 114.822 3.26953C114.943 3.23047 115.082 3.21094 115.238 3.21094C115.436 3.21094 115.612 3.24512 115.769 3.31348C115.925 3.37988 116.058 3.47559 116.167 3.60059C116.278 3.72559 116.363 3.87598 116.422 4.05176C116.48 4.22754 116.51 4.42383 116.51 4.64062C116.51 4.8457 116.481 5.03418 116.425 5.20605C116.37 5.37793 116.287 5.52832 116.176 5.65723C116.064 5.78418 115.924 5.88281 115.754 5.95312C115.586 6.02344 115.388 6.05859 115.159 6.05859C114.987 6.05859 114.824 6.03516 114.67 5.98828C114.518 5.93945 114.381 5.86621 114.26 5.76855C114.141 5.66895 114.043 5.5459 113.967 5.39941C113.893 5.25098 113.846 5.07715 113.826 4.87793H114.342C114.365 5.03809 114.412 5.17285 114.482 5.28223C114.553 5.3916 114.645 5.47461 114.758 5.53125C114.873 5.58594 115.007 5.61328 115.159 5.61328C115.288 5.61328 115.402 5.59082 115.502 5.5459C115.602 5.50098 115.686 5.43652 115.754 5.35254C115.822 5.26855 115.874 5.16699 115.909 5.04785C115.946 4.92871 115.965 4.79492 115.965 4.64648C115.965 4.51172 115.946 4.38672 115.909 4.27148C115.872 4.15625 115.816 4.05566 115.742 3.96973C115.67 3.88379 115.581 3.81738 115.476 3.77051C115.37 3.72168 115.249 3.69727 115.112 3.69727C114.931 3.69727 114.793 3.72168 114.699 3.77051C114.607 3.81934 114.513 3.88574 114.415 3.96973Z" fill="#003468"/>
<path fill-rule="evenodd" clip-rule="evenodd" d="M1 22C1.44404 23.7252 3.01015 25 4.87399 25H43.0062V24.6H4.87398C3.23274 24.6 1.84803 23.5017 1.41469 22H1Z" fill="#003468"/>
<path d="M49.1079 21.7344L48.3667 26H47.8306L46.3071 22.6865L45.7329 26H45.1792L45.9204 21.7344H46.4536L47.9829 25.0566L48.5601 21.7344H49.1079ZM52.7231 22.5752H53.1187C53.0972 22.8018 53.0454 22.9863 52.9634 23.1289C52.8813 23.2695 52.7651 23.374 52.6147 23.4424C52.4644 23.5107 52.2739 23.5469 52.0435 23.5508L52.0786 23.2168C52.2349 23.2129 52.355 23.1885 52.439 23.1436C52.5249 23.0967 52.5884 23.0264 52.6294 22.9326C52.6704 22.8389 52.7017 22.7197 52.7231 22.5752ZM51.27 25.2383L51.686 22.8301H52.2192L51.6685 26H51.1616L51.27 25.2383ZM51.4692 24.5996L51.686 24.5908C51.6606 24.79 51.6157 24.9795 51.5513 25.1592C51.4888 25.3389 51.4019 25.4971 51.2905 25.6338C51.1792 25.7705 51.0415 25.8779 50.8774 25.9561C50.7153 26.0322 50.522 26.0674 50.2974 26.0615C50.1235 26.0576 49.978 26.0234 49.8608 25.959C49.7456 25.8926 49.6548 25.8047 49.5884 25.6953C49.5239 25.5859 49.481 25.4609 49.4595 25.3203C49.438 25.1797 49.4351 25.0312 49.4507 24.875L49.7935 22.8301H50.3237L49.981 24.8838C49.9712 24.9697 49.9692 25.0547 49.9751 25.1387C49.9829 25.2207 50.0015 25.2959 50.0308 25.3643C50.062 25.4326 50.1079 25.4883 50.1685 25.5312C50.231 25.5723 50.313 25.5947 50.4146 25.5986C50.6235 25.6064 50.8013 25.5674 50.9478 25.4814C51.0962 25.3936 51.2134 25.2734 51.2993 25.1211C51.3853 24.9668 51.4419 24.793 51.4692 24.5996ZM51.897 21.623L52.2485 21.6523C52.2368 21.7754 52.2036 21.8926 52.1489 22.0039C52.0962 22.1152 52.022 22.2051 51.9263 22.2734C51.8306 22.3418 51.7144 22.375 51.5776 22.373C51.5034 22.3711 51.436 22.3555 51.3755 22.3262C51.3149 22.2949 51.2554 22.2598 51.1968 22.2207C51.1401 22.1816 51.0825 22.1484 51.0239 22.1211C50.9653 22.0918 50.9009 22.0791 50.8306 22.083C50.7349 22.085 50.6597 22.1191 50.605 22.1855C50.5522 22.25 50.5142 22.3242 50.4907 22.4082L50.1333 22.3936C50.147 22.2705 50.1802 22.1523 50.2329 22.0391C50.2876 21.9258 50.3628 21.834 50.4585 21.7637C50.5542 21.6934 50.6714 21.6592 50.8101 21.6611C50.8804 21.6631 50.9458 21.6797 51.0063 21.7109C51.0669 21.7402 51.1255 21.7744 51.1821 21.8135C51.2407 21.8506 51.2993 21.8838 51.3579 21.9131C51.4185 21.9404 51.4849 21.9541 51.5571 21.9541C51.6528 21.9502 51.728 21.915 51.7827 21.8486C51.8374 21.7822 51.8755 21.707 51.897 21.623Z" fill="#003468"/>
<path fill-rule="evenodd" clip-rule="evenodd" d="M96.5979 22C96.1645 23.5017 94.7798 24.6 93.1386 24.6H55.0063V25H93.1386C95.0024 25 96.5685 23.7252 97.0126 22H96.5979Z" fill="#003468"/>
<path fill-rule="evenodd" clip-rule="evenodd" d="M97 22C97.444 23.7252 99.0101 25 100.874 25H136.994V24.6H100.874C99.2327 24.6 97.848 23.5017 97.4147 22H97Z" fill="#003468"/>
<path d="M143.095 21.7344L142.354 26H141.818L140.295 22.6865L139.72 26H139.167L139.908 21.7344H140.441L141.97 25.0566L142.548 21.7344H143.095ZM145.158 25.458L145.422 23.8203C145.435 23.6992 145.424 23.5928 145.386 23.501C145.351 23.4092 145.292 23.3379 145.208 23.2871C145.126 23.2363 145.022 23.209 144.897 23.2051C144.788 23.2031 144.68 23.2207 144.575 23.2578C144.471 23.2949 144.382 23.3506 144.305 23.4248C144.229 23.499 144.179 23.5928 144.156 23.7061L143.629 23.709C143.642 23.5508 143.692 23.4131 143.778 23.2959C143.864 23.1768 143.971 23.0781 144.1 23C144.229 22.9199 144.368 22.8613 144.516 22.8242C144.665 22.7852 144.809 22.7666 144.95 22.7686C145.163 22.7725 145.347 22.8184 145.504 22.9062C145.662 22.9922 145.781 23.1133 145.861 23.2695C145.941 23.4258 145.97 23.6133 145.949 23.832L145.706 25.3086C145.688 25.416 145.677 25.5244 145.674 25.6338C145.672 25.7412 145.684 25.8467 145.712 25.9502L145.706 26L145.17 26.0029C145.148 25.9131 145.137 25.8223 145.137 25.7305C145.139 25.6387 145.146 25.5479 145.158 25.458ZM145.483 24.0781L145.422 24.459L144.921 24.4561C144.815 24.4561 144.704 24.4639 144.587 24.4795C144.469 24.4951 144.358 24.5244 144.253 24.5674C144.147 24.6104 144.058 24.6729 143.986 24.7549C143.914 24.835 143.87 24.9395 143.854 25.0684C143.843 25.1738 143.855 25.2656 143.892 25.3438C143.931 25.4199 143.99 25.4795 144.068 25.5225C144.146 25.5654 144.237 25.5879 144.341 25.5898C144.475 25.5918 144.608 25.5654 144.739 25.5107C144.87 25.4561 144.984 25.3779 145.082 25.2764C145.179 25.1748 145.247 25.0576 145.284 24.9248L145.477 25.1855C145.44 25.3145 145.38 25.4336 145.296 25.543C145.212 25.6504 145.112 25.7432 144.997 25.8213C144.884 25.8994 144.761 25.96 144.631 26.0029C144.5 26.0459 144.369 26.0664 144.238 26.0645C144.06 26.0605 143.899 26.0205 143.755 25.9443C143.612 25.8682 143.499 25.7617 143.415 25.625C143.333 25.4863 143.298 25.3252 143.309 25.1416C143.321 24.9404 143.374 24.7715 143.468 24.6348C143.561 24.498 143.681 24.3887 143.828 24.3066C143.976 24.2246 144.138 24.166 144.314 24.1309C144.49 24.0938 144.664 24.0752 144.836 24.0752L145.483 24.0781ZM147.373 23.4922L146.939 26H146.406L146.957 22.8301H147.461L147.373 23.4922ZM147.135 24.2949L146.895 24.2891C146.923 24.0918 146.971 23.9014 147.042 23.7178C147.112 23.5342 147.206 23.3701 147.323 23.2256C147.442 23.0811 147.586 22.9678 147.754 22.8857C147.922 22.8037 148.116 22.7656 148.337 22.7715C148.501 22.7754 148.639 22.8076 148.753 22.8682C148.866 22.9268 148.957 23.0078 149.025 23.1113C149.095 23.2129 149.142 23.3301 149.166 23.4629C149.191 23.5957 149.197 23.7373 149.183 23.8877L148.829 26H148.299L148.65 23.9111C148.666 23.7783 148.658 23.6611 148.627 23.5596C148.597 23.458 148.542 23.3779 148.46 23.3193C148.378 23.2588 148.266 23.2266 148.126 23.2227C147.968 23.2188 147.83 23.2461 147.713 23.3047C147.597 23.3633 147.501 23.4443 147.423 23.5479C147.346 23.6494 147.285 23.7656 147.238 23.8965C147.191 24.0254 147.157 24.1582 147.135 24.2949ZM149.183 23.9961L148.802 24.1074C148.826 23.9258 148.875 23.7539 148.949 23.5918C149.025 23.4297 149.124 23.2861 149.245 23.1611C149.366 23.0361 149.507 22.9385 149.667 22.8682C149.827 22.7979 150.004 22.7646 150.197 22.7686C150.369 22.7725 150.514 22.8047 150.634 22.8652C150.753 22.9238 150.847 23.0049 150.918 23.1084C150.99 23.2119 151.038 23.333 151.061 23.4717C151.087 23.6084 151.091 23.7568 151.073 23.917L150.724 26H150.191L150.543 23.9082C150.558 23.7734 150.552 23.6553 150.522 23.5537C150.495 23.4521 150.44 23.373 150.358 23.3164C150.276 23.2578 150.163 23.2275 150.018 23.2256C149.903 23.2217 149.798 23.2393 149.702 23.2783C149.606 23.3174 149.523 23.373 149.453 23.4453C149.383 23.5156 149.324 23.5977 149.277 23.6914C149.232 23.7852 149.201 23.8867 149.183 23.9961Z" fill="#003468"/>
<path fill-rule="evenodd" clip-rule="evenodd" d="M193.576 22C193.143 23.5017 191.758 24.6 190.117 24.6H153.994V25H190.117C191.981 25 193.547 23.7252 193.991 22H193.576Z" fill="#003468"/>
<line x1="129.2" y1="8" x2="129.2" y2="18" stroke="#003468" stroke-width="0.4"/>
<line x1="129.4" y1="12.6" x2="144.6" y2="12.6" stroke="#003468" stroke-width="0.8" stroke-linecap="square"/>
<path d="M128.136 1.71094V6H127.594V2.3877L126.501 2.78613V2.29688L128.051 1.71094H128.136ZM131.81 1.72852H131.856V2.18848H131.81C131.522 2.18848 131.282 2.23535 131.089 2.3291C130.896 2.4209 130.742 2.54492 130.629 2.70117C130.516 2.85547 130.434 3.0293 130.383 3.22266C130.334 3.41602 130.31 3.6123 130.31 3.81152V4.43848C130.31 4.62793 130.332 4.7959 130.377 4.94238C130.422 5.08691 130.483 5.20898 130.562 5.30859C130.64 5.4082 130.728 5.4834 130.825 5.53418C130.925 5.58496 131.028 5.61035 131.136 5.61035C131.261 5.61035 131.372 5.58691 131.47 5.54004C131.567 5.49121 131.649 5.42383 131.716 5.33789C131.784 5.25 131.836 5.14648 131.871 5.02734C131.906 4.9082 131.924 4.77734 131.924 4.63477C131.924 4.50781 131.908 4.38574 131.877 4.26855C131.846 4.14941 131.798 4.04395 131.733 3.95215C131.669 3.8584 131.588 3.78516 131.49 3.73242C131.395 3.67773 131.28 3.65039 131.147 3.65039C130.997 3.65039 130.856 3.6875 130.726 3.76172C130.597 3.83398 130.49 3.92969 130.406 4.04883C130.324 4.16602 130.277 4.29395 130.266 4.43262L129.979 4.42969C130.006 4.21094 130.057 4.02441 130.131 3.87012C130.207 3.71387 130.301 3.58691 130.412 3.48926C130.525 3.38965 130.651 3.31738 130.79 3.27246C130.931 3.22559 131.079 3.20215 131.235 3.20215C131.448 3.20215 131.632 3.24219 131.786 3.32227C131.94 3.40234 132.067 3.50977 132.167 3.64453C132.267 3.77734 132.34 3.92773 132.387 4.0957C132.436 4.26172 132.46 4.43262 132.46 4.6084C132.46 4.80957 132.432 4.99805 132.375 5.17383C132.318 5.34961 132.233 5.50391 132.12 5.63672C132.009 5.76953 131.871 5.87305 131.707 5.94727C131.543 6.02148 131.353 6.05859 131.136 6.05859C130.905 6.05859 130.704 6.01172 130.532 5.91797C130.36 5.82227 130.218 5.69531 130.104 5.53711C129.991 5.37891 129.906 5.20312 129.85 5.00977C129.793 4.81641 129.765 4.62012 129.765 4.4209V4.16602C129.765 3.86523 129.795 3.57031 129.855 3.28125C129.916 2.99219 130.021 2.73047 130.169 2.49609C130.319 2.26172 130.527 2.0752 130.793 1.93652C131.059 1.79785 131.397 1.72852 131.81 1.72852Z" fill="#003468"/>
<line x1="145.2" y1="8" x2="145.2" y2="18" stroke="#003468" stroke-width="0.4"/>
<line x1="145.4" y1="12.6" x2="160.6" y2="12.6" stroke="#003468" stroke-width="0.8" stroke-linecap="square"/>
<path d="M144.136 1.71094V6H143.594V2.3877L142.501 2.78613V2.29688L144.051 1.71094H144.136ZM148.486 1.73438V2.03906L146.72 6H146.148L147.912 2.17969H145.604V1.73438H148.486Z" fill="#003468"/>
<line x1="161.2" y1="8" x2="161.2" y2="18" stroke="#003468" stroke-width="0.4"/>
<line x1="161.4" y1="12.6" x2="176.6" y2="12.6" stroke="#003468" stroke-width="0.8" stroke-linecap="square"/>
<path d="M160.136 1.71094V6H159.594V2.3877L158.501 2.78613V2.29688L160.051 1.71094H160.136ZM164.419 4.8457C164.419 5.10547 164.358 5.32617 164.237 5.50781C164.118 5.6875 163.956 5.82422 163.751 5.91797C163.548 6.01172 163.318 6.05859 163.062 6.05859C162.807 6.05859 162.576 6.01172 162.371 5.91797C162.166 5.82422 162.004 5.6875 161.885 5.50781C161.766 5.32617 161.706 5.10547 161.706 4.8457C161.706 4.67578 161.738 4.52051 161.803 4.37988C161.869 4.2373 161.962 4.11328 162.081 4.00781C162.202 3.90234 162.345 3.82129 162.509 3.76465C162.675 3.70605 162.857 3.67676 163.057 3.67676C163.318 3.67676 163.552 3.72754 163.757 3.8291C163.962 3.92871 164.123 4.06641 164.24 4.24219C164.359 4.41797 164.419 4.61914 164.419 4.8457ZM163.874 4.83398C163.874 4.67578 163.84 4.53613 163.771 4.41504C163.703 4.29199 163.607 4.19629 163.484 4.12793C163.361 4.05957 163.219 4.02539 163.057 4.02539C162.891 4.02539 162.747 4.05957 162.626 4.12793C162.507 4.19629 162.414 4.29199 162.348 4.41504C162.281 4.53613 162.248 4.67578 162.248 4.83398C162.248 4.99805 162.28 5.13867 162.345 5.25586C162.411 5.37109 162.505 5.45996 162.626 5.52246C162.749 5.58301 162.895 5.61328 163.062 5.61328C163.23 5.61328 163.375 5.58301 163.496 5.52246C163.617 5.45996 163.71 5.37109 163.774 5.25586C163.841 5.13867 163.874 4.99805 163.874 4.83398ZM164.319 2.84473C164.319 3.05176 164.265 3.23828 164.155 3.4043C164.046 3.57031 163.896 3.70117 163.707 3.79688C163.518 3.89258 163.303 3.94043 163.062 3.94043C162.818 3.94043 162.601 3.89258 162.409 3.79688C162.22 3.70117 162.071 3.57031 161.964 3.4043C161.856 3.23828 161.803 3.05176 161.803 2.84473C161.803 2.59668 161.856 2.38574 161.964 2.21191C162.073 2.03809 162.223 1.90527 162.412 1.81348C162.602 1.72168 162.817 1.67578 163.06 1.67578C163.304 1.67578 163.521 1.72168 163.71 1.81348C163.899 1.90527 164.048 2.03809 164.155 2.21191C164.265 2.38574 164.319 2.59668 164.319 2.84473ZM163.777 2.85352C163.777 2.71094 163.747 2.58496 163.687 2.47559C163.626 2.36621 163.542 2.28027 163.435 2.21777C163.327 2.15332 163.202 2.12109 163.06 2.12109C162.917 2.12109 162.792 2.15137 162.685 2.21191C162.579 2.27051 162.496 2.35449 162.436 2.46387C162.377 2.57324 162.348 2.70312 162.348 2.85352C162.348 3 162.377 3.12793 162.436 3.2373C162.496 3.34668 162.58 3.43164 162.688 3.49219C162.795 3.55273 162.92 3.58301 163.062 3.58301C163.205 3.58301 163.329 3.55273 163.435 3.49219C163.542 3.43164 163.626 3.34668 163.687 3.2373C163.747 3.12793 163.777 3 163.777 2.85352Z" fill="#003468"/>
<line x1="177.2" y1="8" x2="177.2" y2="18" stroke="#003468" stroke-width="0.4"/>
<line x1="177.4" y1="12.6" x2="193.6" y2="12.6" stroke="#003468" stroke-width="0.8" stroke-linecap="round"/>
<path d="M176.136 1.71094V6H175.594V2.3877L174.501 2.78613V2.29688L176.051 1.71094H176.136ZM178.269 5.5459H178.324C178.637 5.5459 178.891 5.50195 179.086 5.41406C179.281 5.32617 179.432 5.20801 179.537 5.05957C179.643 4.91113 179.715 4.74414 179.754 4.55859C179.793 4.37109 179.812 4.17871 179.812 3.98145V3.32812C179.812 3.13477 179.79 2.96289 179.745 2.8125C179.702 2.66211 179.642 2.53613 179.563 2.43457C179.487 2.33301 179.4 2.25586 179.303 2.20312C179.205 2.15039 179.102 2.12402 178.992 2.12402C178.867 2.12402 178.755 2.14941 178.655 2.2002C178.558 2.24902 178.475 2.31836 178.406 2.4082C178.34 2.49805 178.289 2.60352 178.254 2.72461C178.219 2.8457 178.201 2.97754 178.201 3.12012C178.201 3.24707 178.217 3.37012 178.248 3.48926C178.279 3.6084 178.327 3.71582 178.392 3.81152C178.456 3.90723 178.536 3.9834 178.632 4.04004C178.729 4.09473 178.844 4.12207 178.975 4.12207C179.096 4.12207 179.209 4.09863 179.314 4.05176C179.422 4.00293 179.517 3.9375 179.599 3.85547C179.683 3.77148 179.749 3.67676 179.798 3.57129C179.849 3.46582 179.878 3.35547 179.886 3.24023H180.144C180.144 3.40234 180.111 3.5625 180.047 3.7207C179.984 3.87695 179.896 4.01953 179.783 4.14844C179.67 4.27734 179.537 4.38086 179.385 4.45898C179.232 4.53516 179.066 4.57324 178.887 4.57324C178.676 4.57324 178.493 4.53223 178.339 4.4502C178.185 4.36816 178.058 4.25879 177.958 4.12207C177.86 3.98535 177.787 3.83301 177.738 3.66504C177.691 3.49512 177.668 3.32324 177.668 3.14941C177.668 2.94629 177.696 2.75586 177.753 2.57812C177.81 2.40039 177.894 2.24414 178.005 2.10938C178.116 1.97266 178.254 1.86621 178.418 1.79004C178.584 1.71387 178.775 1.67578 178.992 1.67578C179.236 1.67578 179.444 1.72461 179.616 1.82227C179.788 1.91992 179.928 2.05078 180.035 2.21484C180.145 2.37891 180.225 2.56348 180.275 2.76855C180.326 2.97363 180.352 3.18457 180.352 3.40137V3.59766C180.352 3.81836 180.337 4.04297 180.308 4.27148C180.28 4.49805 180.227 4.71484 180.146 4.92188C180.068 5.12891 179.954 5.31445 179.804 5.47852C179.653 5.64062 179.457 5.76953 179.215 5.86523C178.975 5.95898 178.678 6.00586 178.324 6.00586H178.269V5.5459Z" fill="#003468"/>
<line x1="193.2" y1="8" x2="193.2" y2="18" stroke="#003468" stroke-width="0.4"/>
<path d="M193.149 5.55469V6H190.357V5.61035L191.755 4.05469C191.927 3.86328 192.06 3.70117 192.153 3.56836C192.249 3.43359 192.315 3.31348 192.353 3.20801C192.392 3.10059 192.411 2.99121 192.411 2.87988C192.411 2.73926 192.382 2.6123 192.323 2.49902C192.267 2.38379 192.183 2.29199 192.071 2.22363C191.96 2.15527 191.825 2.12109 191.667 2.12109C191.478 2.12109 191.319 2.1582 191.192 2.23242C191.067 2.30469 190.974 2.40625 190.911 2.53711C190.849 2.66797 190.817 2.81836 190.817 2.98828H190.275C190.275 2.74805 190.328 2.52832 190.434 2.3291C190.539 2.12988 190.695 1.97168 190.902 1.85449C191.109 1.73535 191.364 1.67578 191.667 1.67578C191.937 1.67578 192.167 1.72363 192.358 1.81934C192.55 1.91309 192.696 2.0459 192.798 2.21777C192.901 2.3877 192.953 2.58691 192.953 2.81543C192.953 2.94043 192.932 3.06738 192.889 3.19629C192.848 3.32324 192.79 3.4502 192.716 3.57715C192.644 3.7041 192.559 3.8291 192.461 3.95215C192.365 4.0752 192.263 4.19629 192.153 4.31543L191.011 5.55469H193.149ZM196.407 3.52734V4.17773C196.407 4.52734 196.376 4.82227 196.313 5.0625C196.251 5.30273 196.161 5.49609 196.044 5.64258C195.927 5.78906 195.785 5.89551 195.619 5.96191C195.455 6.02637 195.27 6.05859 195.062 6.05859C194.898 6.05859 194.747 6.03809 194.608 5.99707C194.47 5.95605 194.345 5.89062 194.233 5.80078C194.124 5.70898 194.03 5.58984 193.952 5.44336C193.874 5.29688 193.814 5.11914 193.773 4.91016C193.732 4.70117 193.712 4.45703 193.712 4.17773V3.52734C193.712 3.17773 193.743 2.88477 193.806 2.64844C193.87 2.41211 193.961 2.22266 194.078 2.08008C194.195 1.93555 194.336 1.83203 194.5 1.76953C194.666 1.70703 194.852 1.67578 195.057 1.67578C195.223 1.67578 195.375 1.69629 195.514 1.7373C195.654 1.77637 195.779 1.83984 195.889 1.92773C195.998 2.01367 196.091 2.12891 196.167 2.27344C196.245 2.41602 196.305 2.59082 196.346 2.79785C196.387 3.00488 196.407 3.24805 196.407 3.52734ZM195.862 4.26562V3.43652C195.862 3.24512 195.851 3.07715 195.827 2.93262C195.806 2.78613 195.773 2.66113 195.73 2.55762C195.688 2.4541 195.633 2.37012 195.566 2.30566C195.502 2.24121 195.427 2.19434 195.341 2.16504C195.257 2.13379 195.162 2.11816 195.057 2.11816C194.928 2.11816 194.813 2.14258 194.714 2.19141C194.614 2.23828 194.53 2.31348 194.462 2.41699C194.396 2.52051 194.345 2.65625 194.31 2.82422C194.274 2.99219 194.257 3.19629 194.257 3.43652V4.26562C194.257 4.45703 194.268 4.62598 194.289 4.77246C194.312 4.91895 194.347 5.0459 194.392 5.15332C194.437 5.25879 194.491 5.3457 194.556 5.41406C194.62 5.48242 194.694 5.5332 194.778 5.56641C194.864 5.59766 194.959 5.61328 195.062 5.61328C195.195 5.61328 195.312 5.58789 195.411 5.53711C195.511 5.48633 195.594 5.40723 195.66 5.2998C195.729 5.19043 195.779 5.05078 195.812 4.88086C195.846 4.70898 195.862 4.50391 195.862 4.26562Z" fill="#003468"/>
</svg>
