<svg xmlns="http://www.w3.org/2000/svg" width="224.43" height="46.638" viewBox="0 0 224.43 46.638"><path d="M279.214,304.232c.006.15.012.282.018.432a18.359,18.359,0,0,0,4.776-.638,30.993,30.993,0,0,0,10.716-4.923,44.118,44.118,0,0,0,4.071-3.534,25.483,25.483,0,0,0,4.488-5.631c.308-.521.525-1.1.783-1.644.075-.16.16-.324-.108-.393-.2-.05-.37-.269-.578.057-.746,1.168-1.483,2.346-2.3,3.464a31.166,31.166,0,0,1-14.352,11.07,26.222,26.222,0,0,1-6.743,1.7c-.241.023-.484.025-.772.038" transform="translate(-90.433 -285.84)" fill="#d7c29f"/><path d="M303.035,287.641c-.335-.255-.5-.187-.7.1-.971,1.4-1.921,2.815-2.973,4.15a24.8,24.8,0,0,1-4.782,4.471,39.216,39.216,0,0,1-9.568,5.234,27.424,27.424,0,0,1-5.521,1.359c-.192.03-.284.08-.274.282.007.181,0,.362,0,.608.647-.078,1.266-.109,1.869-.231a31.037,31.037,0,0,0,15.381-7.717,34.3,34.3,0,0,0,5.223-6.206c.449-.678.893-1.359,1.346-2.047" transform="translate(-90.432 -285.909)" fill="#d7c29f"/><path d="M279.387,301.351a31.873,31.873,0,0,0,4.676-1.133,33.322,33.322,0,0,0,9.864-5.705,31.082,31.082,0,0,0,5.678-5.635c.437-.564.793-1.191,1.21-1.825a6.621,6.621,0,0,0-.756-.154.373.373,0,0,0-.266.167,31.26,31.26,0,0,1-5.4,6.152,29.017,29.017,0,0,1-9.685,5.847,26.435,26.435,0,0,1-4.888,1.193.347.347,0,0,0-.251.171c-.079.278-.118.567-.186.923" transform="translate(-90.393 -286.044)" fill="#d7c29f"/><path d="M279.295,302.541c7.453-1,17.889-6.586,22.676-15.174-.433-.293-.542-.286-.8.123a30.149,30.149,0,0,1-8.162,8.343,35.1,35.1,0,0,1-5.169,3.344,27.12,27.12,0,0,1-7.822,2.518l-.11.016c-.647.1-.647.1-.615.831" transform="translate(-90.416 -285.983)" fill="#d7c29f"/><path d="M298.725,292.069a2.858,2.858,0,0,1,.508.341,41.817,41.817,0,0,1,4.425,5.876,36.384,36.384,0,0,1,4.813,11.056c.015.057.036.112.054.167l.117.009a3.158,3.158,0,0,0,.064-.73,29.943,29.943,0,0,0-5.373-13.073,29.465,29.465,0,0,0-3.058-3.849c-.214-.214-.461-.4-.692-.592-.15-.127-.267-.128-.379.059-.155.26-.329.506-.48.736" transform="translate(-85.932 -285.056)" fill="#d7c29f"/><path d="M279.667,299.83c8.471-1.456,14.689-6.2,19.674-13.012a4.536,4.536,0,0,0-.742-.09c-.1,0-.212.118-.283.209-.966,1.217-1.855,2.507-2.9,3.646a25.1,25.1,0,0,1-6.389,4.861,35.387,35.387,0,0,1-7.167,3.059,9.794,9.794,0,0,1-1.493.347.6.6,0,0,0-.613.573c-.016.116-.047.231-.082.4" transform="translate(-90.328 -286.084)" fill="#d7c29f"/><path d="M294.966,296.162c-.637.469-.624.46-.193,1.089A55.828,55.828,0,0,1,300,306.262a23.546,23.546,0,0,1,1.936,9.81c0,.385-.062.77-.1,1.2.273-.162.527-.3.759-.464a.375.375,0,0,0,.108-.283c-.037-.959-.044-1.92-.142-2.872a35.412,35.412,0,0,0-7.333-17.085c-.1-.122-.169-.261-.263-.409" transform="translate(-86.915 -283.908)" fill="#d7c29f"/><path d="M306.281,313.585a1.933,1.933,0,0,0,.646-1.543,22.794,22.794,0,0,0-1.7-5.908,39.133,39.133,0,0,0-4.37-8.229c-1-1.405-2.124-2.72-3.2-4.07-.212-.266-.262-.24-.572.225a20.108,20.108,0,0,1,2.546,3.409c1.221,1.944,2.458,3.889,3.533,5.914a27.512,27.512,0,0,1,2.984,8.885c.06.406.084.817.133,1.317" transform="translate(-86.311 -284.483)" fill="#d7c29f"/><path d="M304.25,315.607c.224-.2.406-.345.562-.511a.449.449,0,0,0,.1-.282,22.369,22.369,0,0,0-2.255-9.177,31.771,31.771,0,0,0-2.973-5.761c-1.064-1.526-2.159-3.03-3.239-4.544a.664.664,0,0,0-.162-.194.907.907,0,0,0-.258-.071c0,.1-.057.236-.01.293a36.172,36.172,0,0,1,5.583,10.11c.665,1.764,1.339,3.526,1.922,5.316a16.457,16.457,0,0,1,.713,4.568c0,.059.006.117.015.252" transform="translate(-86.562 -284.16)" fill="#d7c29f"/><path d="M279.268,305.125c-.012.5-.011.523.559.476a27.326,27.326,0,0,0,6.358-1.271,34.052,34.052,0,0,0,10.8-5.811,29.5,29.5,0,0,0,5.049-5.09,17.57,17.57,0,0,0,2.859-4.894c.03-.084-.055-.206-.087-.31-.078.041-.2.063-.228.125a19.633,19.633,0,0,1-3.617,5.572,32.6,32.6,0,0,1-5.934,5.535,31.146,31.146,0,0,1-12.714,5.345c-1,.174-2.026.218-3.047.322" transform="translate(-90.421 -285.738)" fill="#d7c29f"/><path d="M295.694,295.493c-.214.2-.4.369-.578.538a3.1,3.1,0,0,1,.354.329,32.48,32.48,0,0,1,3.8,5.822,41.121,41.121,0,0,1,2.842,7.184,24.046,24.046,0,0,1,.955,6.957c0,.058.009.116.017.236.3-.22.566-.4.815-.613.052-.043.047-.17.046-.258a20.887,20.887,0,0,0-1.675-7.658,62,62,0,0,0-2.987-7.011,32.741,32.741,0,0,0-3.276-5.169c-.092-.112-.191-.218-.314-.357" transform="translate(-86.765 -284.062)" fill="#d7c29f"/><path d="M305.283,314.67a1.332,1.332,0,0,0,.636-1.227,26.737,26.737,0,0,0-2.235-8.168,42.792,42.792,0,0,0-3.5-6.269c-.81-1.3-1.7-2.545-2.565-3.811a3.112,3.112,0,0,0-.489-.586c-.108-.095-.15-.443-.425-.189-.194.181-.3.306-.076.613a51.349,51.349,0,0,1,5.036,7.545,48.636,48.636,0,0,1,2.79,6.777,16.145,16.145,0,0,1,.815,5.1c0,.058.006.116.012.217" transform="translate(-86.445 -284.33)" fill="#d7c29f"/><path d="M297.711,286.715c-.637-.162-.689-.16-.987.335a19.9,19.9,0,0,1-6.482,6.247,33.136,33.136,0,0,1-7.379,3.632,16.522,16.522,0,0,1-2.112.573.687.687,0,0,0-.636.571,3.118,3.118,0,0,1-.1.31l.046.173a1.656,1.656,0,0,1,.389-.2,30.088,30.088,0,0,0,5.779-2.12,29.271,29.271,0,0,0,8.3-5.549,22.463,22.463,0,0,0,3.1-3.813,1.431,1.431,0,0,0,.08-.156" transform="translate(-90.247 -286.109)" fill="#d7c29f"/><path d="M302.218,309.117c-.678.054-1.318.13-1.96.153a15.75,15.75,0,0,1-5.55-.914,24.912,24.912,0,0,1-6.994-3.475,12.553,12.553,0,0,1-3.031-2.869.249.249,0,0,0-.2-.078,4.354,4.354,0,0,0-.479.137,7.454,7.454,0,0,0,1.572,1.844,22.992,22.992,0,0,0,4.23,2.967,25.147,25.147,0,0,0,6.143,2.545,16.218,16.218,0,0,0,6.038.457c.276-.032.364-.116.289-.382a2.87,2.87,0,0,1-.058-.384" transform="translate(-89.328 -282.577)" fill="#d7c29f"/><path d="M307.295,312.1a1.175,1.175,0,0,0,.319-1.133,37.778,37.778,0,0,0-5.14-12.325A50.255,50.255,0,0,0,298.4,293.1c-.086-.1-.146-.4-.4-.151-.315.305-.343.42-.116.679a40.135,40.135,0,0,1,4.409,5.886,42.006,42.006,0,0,1,4.54,10.281c.207.745.309,1.517.466,2.311" transform="translate(-86.162 -284.671)" fill="#d7c29f"/><path d="M284.868,301.881c.759.719,1.431,1.442,2.191,2.058a23.388,23.388,0,0,0,7.589,3.968,14.931,14.931,0,0,0,6.9.815c.158-.023.407.049.333-.274-.053-.233-.033-.48-.425-.412a15.782,15.782,0,0,1-1.669.175,12.85,12.85,0,0,1-5.487-.987,28.358,28.358,0,0,1-7.671-4.592,6.382,6.382,0,0,1-.665-.676c-.4-.437-.391-.441-1.093-.074" transform="translate(-89.129 -282.65)" fill="#d7c29f"/><path d="M294.839,286.654c-.731.117-1.362.21-1.99.325-.087.016-.172.122-.23.207a18.752,18.752,0,0,1-9.317,7.226c-.631.222-1.268.427-1.889.669a.757.757,0,0,0-.324.409,24.932,24.932,0,0,0,7.6-3.216,22.645,22.645,0,0,0,6.148-5.62" transform="translate(-90 -286.101)" fill="#d7c29f"/><path d="M283.152,302.317a14.662,14.662,0,0,0,2.118,2.533,21.188,21.188,0,0,0,5.51,3.639,22.285,22.285,0,0,0,7.6,2.282,14.443,14.443,0,0,0,3.963-.091c.282-.046.282-.048.213-.384-.892.053-1.787.154-2.68.15a18.245,18.245,0,0,1-6.113-1.258,28.3,28.3,0,0,1-6.844-3.7,12.027,12.027,0,0,1-3.2-3.162c-.071-.111-.331-.1-.5-.145-.021.046-.043.092-.065.138" transform="translate(-89.524 -282.52)" fill="#d7c29f"/><path d="M291.743,287.064q-1.108.391-2.214.784a.161.161,0,0,0-.085.064,9.8,9.8,0,0,1-2.194,2.4,12.724,12.724,0,0,1-4.748,2.973c-.362.128-.6.614-.855.967a18.7,18.7,0,0,0,10.147-7.079l-.05-.111" transform="translate(-89.871 -286.006)" fill="#d7c29f"/><path d="M285.922,301.524a15.716,15.716,0,0,0,1.223,1.154,27.078,27.078,0,0,0,7.61,4.324,11.494,11.494,0,0,0,5.663.7c.31-.05.63-.049,1-.076-.065-.254-.128-.491-.19-.73a8.66,8.66,0,0,1-5.3-.1,25.65,25.65,0,0,1-5.308-2.483,13.559,13.559,0,0,1-3.234-2.641c-.546-.62-.628-.6-1.467-.145" transform="translate(-88.885 -282.747)" fill="#d7c29f"/><path d="M296.3,286.683a.7.7,0,0,0-.859.267,25.221,25.221,0,0,1-13.575,8.962.868.868,0,0,1-.283.066c-.746-.075-.928.463-1.081,1.153a2.1,2.1,0,0,1,.383-.185,31.27,31.27,0,0,0,8.178-3.624,23.617,23.617,0,0,0,5.329-4.219c.673-.74,1.245-1.573,1.909-2.421" transform="translate(-90.135 -286.103)" fill="#d7c29f"/><path d="M307.939,310.9a1.368,1.368,0,0,0,.251-1.215,38.139,38.139,0,0,0-6.454-13.591c-.943-1.252-1.952-2.451-2.93-3.676-.071-.09-.139-.185-.209-.277-.32.21-.272.378-.037.657a46.263,46.263,0,0,1,6.729,10.287,33.043,33.043,0,0,1,2.581,7.582c.011.057.033.112.069.233" transform="translate(-86.014 -284.834)" fill="#d7c29f"/><path d="M300.784,306.577a.326.326,0,0,0,0-.079c-.165-.578-.165-.572-.751-.522a12.445,12.445,0,0,1-7.317-1.508,18.531,18.531,0,0,1-3.611-2.391c-.268-.246-.5-.527-.774-.773a2.263,2.263,0,0,0-.634-.466c-.139-.057-.349.063-.585.114a14.318,14.318,0,0,0,2.939,2.639,27.5,27.5,0,0,0,5.458,2.675,8.516,8.516,0,0,0,4.668.406c.2-.043.406-.065.608-.1" transform="translate(-88.611 -282.832)" fill="#d7c29f"/><path d="M300.593,317.757a.99.99,0,0,0,.943-1.025,19.659,19.659,0,0,0-.159-4.184,26.167,26.167,0,0,0-4-10.641c-1-1.624-2.063-3.21-3.093-4.817-.129-.2-.228-.209-.422-.058-.21.164-.119.25,0,.4a38.48,38.48,0,0,1,4.871,7.337,21.946,21.946,0,0,1,1.892,12.764c-.009.071-.02.144-.031.225" transform="translate(-87.083 -283.731)" fill="#d7c29f"/><path d="M288.038,300.651c.709.628,1.367,1.316,2.127,1.864,2.824,2.042,5.892,3.392,9.488,3.086.154-.012.306-.038.486-.062-.036-.1-.06-.167-.082-.234-.085-.261-.185-.316-.523-.305a11.9,11.9,0,0,1-2.6-.182,14.882,14.882,0,0,1-5.7-2.332,25.254,25.254,0,0,1-2.225-1.819c-.447-.386-.438-.409-.972-.017" transform="translate(-88.397 -282.937)" fill="#d7c29f"/><path d="M284.74,312.7a2.106,2.106,0,0,0,1.559.766,19.767,19.767,0,0,0,8.471-1.336,25.347,25.347,0,0,0,3.909-1.952,2.276,2.276,0,0,0,.564-.5c-.244-.015-.487-.034-.731-.037-.049,0-.109.055-.149.1-.141.154-.245.373-.417.461a17.194,17.194,0,0,1-2.111.984,26.8,26.8,0,0,1-8.291,1.706c-.786.016-1.575-.087-2.362-.138-.13-.009-.258-.028-.442-.049" transform="translate(-89.158 -280.801)" fill="#d7c29f"/><path d="M301.514,309.432a1.434,1.434,0,0,0-.367.169,14.775,14.775,0,0,1-1.252,1.143,21.744,21.744,0,0,1-11.212,4.251,2.561,2.561,0,0,0-.6.116,1.923,1.923,0,0,0,1.231.331,20.95,20.95,0,0,0,5.561-1.3c1.436-.647,2.822-1.419,4.192-2.2a19.71,19.71,0,0,0,2.135-1.512c.429-.33.41-.357.309-.992" transform="translate(-88.386 -280.847)" fill="#d7c29f"/><path d="M286.243,314.01c.347.193.624.34.892.5a1.163,1.163,0,0,0,.829.089c.889-.14,1.783-.245,2.677-.354a20.2,20.2,0,0,0,7.914-3.03c.6-.361,1.177-.773,1.756-1.173a4.929,4.929,0,0,0,.481-.442c-.4.028-.7.043-1,.073a.364.364,0,0,0-.176.1,9.953,9.953,0,0,1-1.136.95A20.582,20.582,0,0,1,287.29,314c-.324,0-.647,0-1.047.006" transform="translate(-88.811 -280.809)" fill="#d7c29f"/><path d="M294.246,309.017c-.309-.113-.57-.21-.832-.3a.336.336,0,0,0-.206-.03,12.376,12.376,0,0,1-5.707.564,21.947,21.947,0,0,1-6.218-1.306.775.775,0,0,0-.17-.025l-.06.1a3.827,3.827,0,0,0,.524.362,19.864,19.864,0,0,0,8.317,1.541,10.884,10.884,0,0,0,4.352-.9" transform="translate(-90.008 -281.196)" fill="#d7c29f"/><path d="M298.734,303.889a.743.743,0,0,0-.767-.676,10.309,10.309,0,0,1-5.4-2.3c-.607-.478-1.143-1.045-1.718-1.564a.293.293,0,0,0-.233-.075c-.619.207-.651.341-.231.817a11.579,11.579,0,0,0,6.581,3.56c.452.095.912.15,1.368.218.127.018.256.012.4.018" transform="translate(-87.92 -283.191)" fill="#d7c29f"/><path d="M279.622,302.8a11.344,11.344,0,0,0,1.565,3,13.3,13.3,0,0,0,3.885,3.644,4.522,4.522,0,0,0,1.3.362c.01-.032.02-.065.028-.1-.524-.417-1.056-.828-1.574-1.255a16.156,16.156,0,0,1-4.3-5.139c-.022-.043-.043-.087-.064-.13-.242-.5-.242-.5-.839-.377" transform="translate(-90.339 -282.392)" fill="#d7c29f"/><path d="M288.207,309.942c-.955-.781-1.9-1.517-2.806-2.306a23.623,23.623,0,0,1-4.038-4.674c-.249-.373-.263-.364-.751-.26.047.111.087.219.138.321a15.14,15.14,0,0,0,3.71,4.637c.658.575,1.336,1.127,2.023,1.666a2.331,2.331,0,0,0,1.723.615" transform="translate(-90.11 -282.414)" fill="#d7c29f"/><path d="M299.431,304.621c-.02-.432-.313-.34-.572-.361a14.452,14.452,0,0,1-4.66-1.127,10.883,10.883,0,0,1-4.237-3.139c-.16-.2-.278-.214-.475-.084a5.814,5.814,0,0,1-.513.273c1.575,2.317,7.968,5.026,10.458,4.438" transform="translate(-88.182 -283.063)" fill="#d7c29f"/><path d="M292.175,309.619c-.884-.438-1.766-.866-2.64-1.313a17.02,17.02,0,0,1-6.569-5.638c-.18-.266-.346-.39-.667-.2a1,1,0,0,0,.069.148,15.921,15.921,0,0,0,4.181,4.376c.81.557,1.6,1.158,2.434,1.669.629.385,1.325.657,1.991.982a1.088,1.088,0,0,0,1.2-.025" transform="translate(-89.721 -282.474)" fill="#d7c29f"/><path d="M282.457,310.051a2.036,2.036,0,0,0,1.248.965,18.7,18.7,0,0,0,6.92.316,21,21,0,0,0,5.721-1.544c.187-.084.365-.188.631-.326-.3-.069-.521-.123-.741-.165a.2.2,0,0,0-.165.031,3.443,3.443,0,0,1-1.789.907,19.693,19.693,0,0,1-9.839.4c-.319-.075-.626-.194-.941-.288s-.629-.18-1.045-.3" transform="translate(-89.685 -280.879)" fill="#d7c29f"/><path d="M295.559,309.239a1.333,1.333,0,0,0-1.133.031,11.357,11.357,0,0,1-3.52.906,20.866,20.866,0,0,1-9.259-1.349c.218.32.314.656.722.759.752.193,1.5.416,2.247.624a14.779,14.779,0,0,0,5.5.336c1.206-.122,2.411-.306,3.6-.545a13.716,13.716,0,0,0,1.871-.655c-.01-.036-.021-.071-.031-.107" transform="translate(-89.871 -280.986)" fill="#d7c29f"/><path d="M291.035,299.023a10.908,10.908,0,0,0,6.892,3.808c-.23-.439-.386-.813-.993-.959a11.892,11.892,0,0,1-4.584-2.33c-.2-.158-.394-.325-.581-.5-.338-.311-.336-.314-.733-.021" transform="translate(-87.706 -283.297)" fill="#d7c29f"/><path d="M304.917,292.544a38.786,38.786,0,0,1,.938,6.684c.048.624-.006,1.258-.012,1.889a.6.6,0,0,0,.018.212c.2.533.412,1.061.628,1.612.572-1.777-.56-9.269-1.572-10.4" transform="translate(-84.504 -284.742)" fill="#d7c29f"/><path d="M289.85,315.552a2.362,2.362,0,0,0,1.345.2,34.5,34.5,0,0,0,6.019-1.99,11.544,11.544,0,0,0,3.644-2.5c.373-.378.374-.377.326-.629-3.424,2.429-7,4.529-11.334,4.921" transform="translate(-87.979 -280.57)" fill="#d7c29f"/><path d="M290.473,309.974c-.618-.346-1.22-.637-1.771-1-.95-.631-1.877-1.3-2.8-1.968a16.6,16.6,0,0,1-3.888-4.306c-.076-.113-.287-.135-.436-.2-.033.047-.066.092-.1.139.6.78,1.183,1.581,1.818,2.336a26.058,26.058,0,0,0,4.182,3.884c.319.242.663.455.96.721a2.213,2.213,0,0,0,2.031.4" transform="translate(-89.909 -282.446)" fill="#d7c29f"/><path d="M283.578,311.48a1.5,1.5,0,0,0,.994.626,16.007,16.007,0,0,0,6.093-.026,30.21,30.21,0,0,0,5.864-1.624,11.13,11.13,0,0,0,1.556-.8.874.874,0,0,0-.855.046,12.391,12.391,0,0,1-2.312,1.062,22.112,22.112,0,0,1-7.967,1.2c-.929-.048-1.851-.251-2.775-.386-.188-.027-.374-.064-.6-.1" transform="translate(-89.426 -280.816)" fill="#d7c29f"/><path d="M305.772,300.511c-.048-.587-.074-1.176-.148-1.76-.185-1.471-.325-2.952-.614-4.4a21.106,21.106,0,0,0-.964-3.008c-.087-.241-.356-.417-.541-.623l-.135.042a1.823,1.823,0,0,1,.129.235,25.952,25.952,0,0,1,1.569,7.945,4.826,4.826,0,0,0,.61,1.591l.094-.02" transform="translate(-84.861 -285.163)" fill="#d7c29f"/><path d="M302.289,289.761a45.908,45.908,0,0,1,1.693,7.38,5.334,5.334,0,0,0,.679,1.368l.129-.047c-.092-.717-.167-1.437-.278-2.152a27.614,27.614,0,0,0-1.572-5.72,6.382,6.382,0,0,0-.534-.911l-.118.081" transform="translate(-85.11 -285.403)" fill="#d7c29f"/><path d="M291.789,315.814a3.558,3.558,0,0,0,2.075-.139,17.581,17.581,0,0,0,6.754-3.562.858.858,0,0,0,.158-.556c-2.524,2.385-5.708,3.322-8.986,4.257" transform="translate(-87.532 -280.357)" fill="#d7c29f"/><path d="M288.16,288.1a17.617,17.617,0,0,0-5.335,4.057c.975-.036,4.292-2.558,5.335-4.057" transform="translate(-89.6 -285.767)" fill="#d7c29f"/><path d="M306.858,304.68c.834-1.951.353-8.37-.82-10.459.036.2.05.29.07.383a24.657,24.657,0,0,1,.753,7.271,8.039,8.039,0,0,1-.18,1.3,2.677,2.677,0,0,0,.176,1.508" transform="translate(-84.246 -284.355)" fill="#d7c29f"/><path d="M307.587,298.493a20.117,20.117,0,0,1-.358,5.113,2.584,2.584,0,0,1-.135.639,3.244,3.244,0,0,0,.073,1.974c.7-1,.992-6.194.421-7.726" transform="translate(-84.035 -283.37)" fill="#d7c29f"/><path d="M279.524,303.975a8.448,8.448,0,0,0,.635,2,10.969,10.969,0,0,0,1.628,1.821,5.24,5.24,0,0,0,.986.8,3.881,3.881,0,0,0,1.121.409,14.121,14.121,0,0,1-4.265-5.063l-.1.032" transform="translate(-90.361 -282.113)" fill="#d7c29f"/><path d="M294.35,315.683a4.352,4.352,0,0,0,1.8-.314c.9-.469,1.834-.881,2.728-1.361a5.59,5.59,0,0,0,1.133-.832c.126-.116.1-.389.112-.609a19.483,19.483,0,0,1-5.771,3.116" transform="translate(-86.942 -280.124)" fill="#d7c29f"/><path d="M301.407,289.064c.327,1.211.7,2.466,1,3.736.206.859.287,1.747.489,2.606a4.065,4.065,0,0,0,.557.964,23.7,23.7,0,0,0-2.047-7.306" transform="translate(-85.314 -285.545)" fill="#d7c29f"/><path d="M296.91,301.527c-.25-.422-.423-.7-.871-.845a10.581,10.581,0,0,1-3.889-2.167c-.064-.058-.2-.041-.3-.059.022.086.015.2.069.256a12.8,12.8,0,0,0,4.988,2.816" transform="translate(-87.517 -283.379)" fill="#d7c29f"/><path d="M295.754,300.138a2.613,2.613,0,0,0-1.117-1.061,16.543,16.543,0,0,1-1.889-1.058c-.068-.037-.206.018-.293.065a.242.242,0,0,0,.016.212c.6.43,1.19.876,1.82,1.258a13.585,13.585,0,0,0,1.407.658l.057-.074" transform="translate(-87.383 -283.482)" fill="#d7c29f"/><path d="M302.479,294.549c-.228-.955-.416-1.921-.694-2.861-.267-.906-.625-1.784-.941-2.675-.025-.068-.03-.143-.054-.209s-.071-.156-.107-.233c-.055.028-.143.046-.16.089-.037.091-.082.221-.044.29a12.861,12.861,0,0,1,1.436,4.668,2.185,2.185,0,0,0,.448.955c.038-.009.078-.016.117-.023" transform="translate(-85.531 -285.659)" fill="#d7c29f"/><path d="M301.446,293.035a17.722,17.722,0,0,0-1.159-3.73.724.724,0,0,0-.107.764c.249.732.407,1.494.657,2.225a3.679,3.679,0,0,0,.525.788l.084-.047" transform="translate(-85.611 -285.489)" fill="#d7c29f"/><path d="M294.3,298.486c-.188-.237-.373-.476-.565-.711-.336-.411-.337-.41-.794.047l1.313.761.046-.1" transform="translate(-87.266 -283.605)" fill="#d7c29f"/><path d="M299.91,290.154c-.153.262-.268.442-.359.631a.225.225,0,0,0,.036.209,3.928,3.928,0,0,0,.807.528c-.153-.431-.3-.861-.484-1.368" transform="translate(-85.745 -285.293)" fill="#d7c29f"/><path d="M299.136,313.637l-1.341.98.018.05a7.442,7.442,0,0,0,1.125-.43c.153-.086.2-.368.289-.56l-.091-.041" transform="translate(-86.147 -279.877)" fill="#d7c29f"/><path d="M347.772,296.424a17.734,17.734,0,0,0-4.457-5.842,25.562,25.562,0,0,0-5.379-3.261c-.231-.1-.465-.2-.7-.288a14.857,14.857,0,0,0-1.691-.389,17.822,17.822,0,0,0-17.422,5.463,16.649,16.649,0,0,0-3.713,6.222.562.562,0,0,1-.662.466c-.41-.018-.823-.043-1.236-.073a10.124,10.124,0,0,1-4.53-1.442c-4.142-2.529-7.946-4.493-13.231-4.493H128.68v.486H294.749c5.144,0,8.762,1.978,12.79,4.473a10.08,10.08,0,0,0,4.471,1.472c.378.031.756.059,1.133.082.29.02.583-.02.913-.02-.117.583-.252,1.128-.349,1.672a17.671,17.671,0,0,0,4.588,15.691,17.96,17.96,0,0,0,19.522,4.569,17.73,17.73,0,0,0,7.6-5.444,17.134,17.134,0,0,0,2.78-4.608,17.884,17.884,0,0,0-.427-14.738m0,10.111a2.7,2.7,0,0,1-.176-1.517,9.223,9.223,0,0,0,.176-1.3,24.2,24.2,0,0,0-.759-7.272,2.682,2.682,0,0,1-.058-.37c1.167,2.081,1.653,8.5.817,10.462m-.642-2.139c-.214-.545-.409-1.069-.621-1.615a.649.649,0,0,1-.02-.194c0-.641.058-1.264.02-1.905a38.889,38.889,0,0,0-.934-6.669c1.012,1.127,2.139,8.613,1.556,10.383M343.8,291.758c.176.214.448.389.525.623a20.943,20.943,0,0,1,.972,3.013c.292,1.44.428,2.936.623,4.395.058.583.1,1.186.135,1.77l-.1.02a4.935,4.935,0,0,1-.6-1.595,25.9,25.9,0,0,0-1.574-7.952,1.439,1.439,0,0,0-.117-.234.479.479,0,0,0,.135-.038m-1.361-1.284a7.452,7.452,0,0,1,.545.914,28.946,28.946,0,0,1,1.575,5.716c.1.719.175,1.439.272,2.159a.381.381,0,0,1-.137.038,5.589,5.589,0,0,1-.681-1.361,43.593,43.593,0,0,0-1.691-7.369c.038-.038.078-.058.116-.1m.857,6.553a3.955,3.955,0,0,1-.565-.954c-.193-.875-.292-1.75-.485-2.605-.311-1.284-.681-2.528-1.012-3.752a24.049,24.049,0,0,1,2.061,7.311m-3.15-7.817c.02-.058.1-.058.156-.1a1.256,1.256,0,0,1,.1.234.91.91,0,0,1,.058.214c.311.893.681,1.768.953,2.663.272.952.466,1.905.681,2.877a.247.247,0,0,0-.117.02,2.533,2.533,0,0,1-.447-.953,12.69,12.69,0,0,0-1.439-4.667c-.039-.078.02-.214.058-.292m-.33.817a16.4,16.4,0,0,1,1.165,3.713c-.018.02-.058.039-.078.059a4.03,4.03,0,0,1-.524-.8c-.254-.72-.409-1.478-.661-2.216a.722.722,0,0,1,.1-.758m-.02,2.411a4.086,4.086,0,0,1-.8-.526.179.179,0,0,1-.039-.214,5.816,5.816,0,0,1,.351-.641c.175.506.33.953.486,1.381m-16.08-3.909c-1.051,1.517-4.375,4.025-5.347,4.064a17.8,17.8,0,0,1,5.347-4.064m-5.93,4.958a12.739,12.739,0,0,0,4.744-2.974,9.628,9.628,0,0,0,2.2-2.411.281.281,0,0,1,.078-.059c.74-.252,1.478-.524,2.216-.778a.418.418,0,0,0,.059.1,18.759,18.759,0,0,1-10.15,7.1c.254-.369.486-.855.857-.972m-1.226,1.692c.623-.234,1.264-.448,1.887-.662a18.749,18.749,0,0,0,9.314-7.232c.058-.078.155-.194.233-.194.642-.117,1.264-.214,2-.331a22.827,22.827,0,0,1-6.164,5.62,24.335,24.335,0,0,1-7.6,3.207.9.9,0,0,1,.33-.407m.039.893a.613.613,0,0,0,.272-.058,25.268,25.268,0,0,0,13.591-8.964.711.711,0,0,1,.855-.272c-.661.855-1.244,1.692-1.905,2.431a24.253,24.253,0,0,1-5.327,4.22,31.762,31.762,0,0,1-8.186,3.616,1.853,1.853,0,0,0-.389.194c.156-.7.35-1.244,1.089-1.167m-1.575,2.1a.683.683,0,0,1,.623-.583,15.645,15.645,0,0,0,2.119-.564,33.354,33.354,0,0,0,7.369-3.637,19.746,19.746,0,0,0,6.494-6.242c.292-.5.349-.5.992-.33a.964.964,0,0,0-.1.155,22.339,22.339,0,0,1-3.091,3.811,29.561,29.561,0,0,1-8.3,5.542,30.209,30.209,0,0,1-5.774,2.119,1.935,1.935,0,0,0-.389.214.569.569,0,0,1-.039-.175,1.443,1.443,0,0,1,.1-.311m-.447,1.381c.038-.37.233-.525.6-.585a7.886,7.886,0,0,0,1.5-.35,35.82,35.82,0,0,0,7.175-3.052,25.578,25.578,0,0,0,6.377-4.861c1.051-1.147,1.944-2.431,2.917-3.656.059-.078.175-.194.273-.194a3.87,3.87,0,0,1,.738.079c-4.978,6.8-11.2,11.568-19.677,13.007.038-.175.078-.272.1-.388m-.254,1.03c.02-.078.156-.156.254-.175a26.554,26.554,0,0,0,4.9-1.186,28.893,28.893,0,0,0,9.683-5.853,30.6,30.6,0,0,0,5.387-6.143.468.468,0,0,1,.272-.176c.252.039.486.1.758.156-.427.641-.778,1.264-1.224,1.828a30.57,30.57,0,0,1-5.678,5.639,33.269,33.269,0,0,1-9.857,5.7,30.24,30.24,0,0,1-4.667,1.147,8.3,8.3,0,0,1,.175-.933m.311,1.341a.245.245,0,0,0,.117-.02,26.411,26.411,0,0,0,7.816-2.508,34.622,34.622,0,0,0,5.172-3.344,30.331,30.331,0,0,0,8.167-8.341c.252-.409.369-.409.8-.117-4.784,8.574-15.224,14.175-22.672,15.165-.038-.738-.038-.738.6-.836m-.7,1.595c0-.194.078-.254.273-.273a26.679,26.679,0,0,0,5.522-1.361,39.385,39.385,0,0,0,9.566-5.23,24.824,24.824,0,0,0,4.784-4.472c1.05-1.341,2-2.76,2.974-4.161.194-.272.369-.35.7-.1-.448.7-.895,1.381-1.341,2.061a35.43,35.43,0,0,1-5.23,6.2,31.047,31.047,0,0,1-15.381,7.72c-.6.116-1.224.155-1.867.233,0-.252.02-.427,0-.621m0,1.069c.292,0,.526-.02.759-.039a26.017,26.017,0,0,0,6.746-1.692,30.969,30.969,0,0,0,14.349-11.082c.817-1.109,1.556-2.3,2.314-3.462.195-.31.369-.1.564-.058.273.078.194.234.117.409a17.825,17.825,0,0,1-.778,1.633,25.715,25.715,0,0,1-4.491,5.639,47.316,47.316,0,0,1-4.083,3.538,31.276,31.276,0,0,1-10.714,4.92,17.779,17.779,0,0,1-4.764.621,2.949,2.949,0,0,1-.02-.427m.059.991c1.03-.1,2.042-.135,3.052-.31a31.37,31.37,0,0,0,12.716-5.347,32.724,32.724,0,0,0,5.931-5.542,19.439,19.439,0,0,0,3.617-5.561c.02-.078.155-.1.233-.135.02.116.117.233.079.31a17.71,17.71,0,0,1-2.859,4.9,29.817,29.817,0,0,1-5.055,5.094,33.92,33.92,0,0,1-10.792,5.814,27.477,27.477,0,0,1-6.358,1.264c-.564.039-.583.02-.564-.486m5.5,5.873a15.157,15.157,0,0,1-3.714-4.647c-.038-.1-.078-.194-.135-.311.486-.117.506-.117.758.252a23.183,23.183,0,0,0,4.044,4.686c.895.778,1.847,1.516,2.8,2.294a2.39,2.39,0,0,1-1.73-.6c-.681-.545-1.361-1.109-2.022-1.672m1.711,2.061c0,.038-.018.058-.018.1a4.41,4.41,0,0,1-1.3-.37A13.1,13.1,0,0,1,316,309.607a10.993,10.993,0,0,1-1.556-2.994c.583-.117.583-.117.837.369a.877.877,0,0,0,.058.137,16.1,16.1,0,0,0,4.3,5.133c.524.427,1.05.836,1.574,1.264m1.517-.895a26.39,26.39,0,0,1-4.18-3.889c-.642-.758-1.226-1.556-1.828-2.333.038-.058.078-.1.1-.137.155.059.369.079.447.194a16.385,16.385,0,0,0,3.889,4.3q1.372,1.021,2.8,1.984c.544.349,1.147.641,1.77.991a2.224,2.224,0,0,1-2.042-.389,10.963,10.963,0,0,0-.953-.719m1.691-.234c-.836-.506-1.633-1.108-2.43-1.671a15.486,15.486,0,0,1-4.181-4.375.513.513,0,0,1-.078-.137c.311-.194.486-.078.661.194a17.074,17.074,0,0,0,6.573,5.639c.875.447,1.75.875,2.643,1.322a1.123,1.123,0,0,1-1.2.02c-.661-.331-1.361-.6-1.984-.992m1.984-.214a21.252,21.252,0,0,1-5.5-3.635,14.643,14.643,0,0,1-2.12-2.528c.02-.058.039-.1.059-.155.175.058.447.038.506.155a12.39,12.39,0,0,0,3.208,3.169,28.349,28.349,0,0,0,6.844,3.694,18.2,18.2,0,0,0,6.105,1.264c.895,0,1.789-.1,2.683-.155.079.33.079.33-.213.389a14.284,14.284,0,0,1-3.966.078,22.308,22.308,0,0,1-7.6-2.275m11.413,1.343a16.3,16.3,0,0,1-6.046-.468,24.581,24.581,0,0,1-6.145-2.546,22.813,22.813,0,0,1-4.22-2.956,7.192,7.192,0,0,1-1.574-1.847,2.573,2.573,0,0,1,.486-.135.2.2,0,0,1,.194.078,12.088,12.088,0,0,0,3.032,2.858,24.193,24.193,0,0,0,6.98,3.48,15.537,15.537,0,0,0,5.561.914c.641-.02,1.284-.1,1.964-.155a2.455,2.455,0,0,0,.058.389c.059.272-.02.349-.292.389m-.252-1.245a14.8,14.8,0,0,1-6.883-.816,22.931,22.931,0,0,1-7.6-3.966c-.758-.6-1.419-1.341-2.177-2.061.7-.349.681-.349,1.088.078a5.406,5.406,0,0,0,.662.681,28.4,28.4,0,0,0,7.661,4.589,13.05,13.05,0,0,0,5.5.992,16.412,16.412,0,0,0,1.653-.175c.409-.079.389.175.427.407.079.331-.175.254-.33.272m-.875-1.108a11.659,11.659,0,0,1-5.659-.7,26.961,26.961,0,0,1-7.621-4.336c-.428-.331-.8-.74-1.226-1.147.837-.448.934-.468,1.478.155a13.553,13.553,0,0,0,3.228,2.625,24.857,24.857,0,0,0,5.308,2.488,8.823,8.823,0,0,0,5.308.117c.059.234.117.466.176.72a7.733,7.733,0,0,0-.992.078m.641-1.206a3.054,3.054,0,0,0-.6.1,8.745,8.745,0,0,1-4.685-.407,27.723,27.723,0,0,1-5.444-2.684,13.442,13.442,0,0,1-2.936-2.645c.234-.038.447-.155.583-.116a2.37,2.37,0,0,1,.623.466c.272.252.5.544.778.778a17.932,17.932,0,0,0,3.616,2.391,12.448,12.448,0,0,0,7.311,1.517c.583-.059.583-.059.758.524Zm-.913-1.088c-3.6.31-6.67-1.051-9.49-3.093a27.089,27.089,0,0,1-2.138-1.866c.544-.389.524-.37.971.018.74.623,1.44,1.284,2.236,1.829a14.988,14.988,0,0,0,5.7,2.333,11.572,11.572,0,0,0,2.586.175c.349,0,.447.038.525.311.018.058.058.135.1.233-.194.02-.331.039-.486.059m-10.48-5.542c.175-.1.369-.176.524-.273.194-.135.311-.116.466.079a10.935,10.935,0,0,0,4.24,3.149,14.891,14.891,0,0,0,4.667,1.129c.252.018.544-.079.564.349-2.488.583-8.886-2.119-10.461-4.433m9.643,3.558c-.466-.078-.933-.117-1.381-.214a11.63,11.63,0,0,1-6.572-3.558c-.427-.486-.389-.623.234-.817a.345.345,0,0,1,.233.059c.565.524,1.109,1.088,1.712,1.574a10.28,10.28,0,0,0,5.385,2.3.749.749,0,0,1,.778.681,2.456,2.456,0,0,1-.389-.02m-7.1-4.958c.389-.292.389-.292.74.02a5.009,5.009,0,0,0,.583.506,11.756,11.756,0,0,0,4.569,2.333c.621.135.778.5.991.952a10.933,10.933,0,0,1-6.883-3.811m1.069-.389c-.058-.058-.038-.175-.058-.252.1.018.234,0,.292.058a10.514,10.514,0,0,0,3.889,2.159,1.571,1.571,0,0,1,.875.855,12.969,12.969,0,0,1-5-2.819m3.909,1.4a12.939,12.939,0,0,1-1.4-.662c-.623-.389-1.226-.836-1.829-1.263-.038-.02-.038-.2,0-.214.079-.039.214-.1.292-.059a14.872,14.872,0,0,0,1.887,1.05,2.69,2.69,0,0,1,1.109,1.069c-.02.02-.039.059-.059.079m-1.322-1.75c-.428-.254-.855-.506-1.3-.759.448-.466.448-.466.8-.058.175.234.369.466.564.72a.42.42,0,0,0-.058.1m-17.188,8.866a9.079,9.079,0,0,1-.641-1.983c.038-.02.078-.02.116-.039a14.332,14.332,0,0,0,4.258,5.075,4.37,4.37,0,0,1-1.127-.428,4.733,4.733,0,0,1-.972-.8,9.655,9.655,0,0,1-1.633-1.827m1.244,2.976a.439.439,0,0,1,.058-.1.573.573,0,0,1,.176.018,21.865,21.865,0,0,0,6.222,1.3,12.093,12.093,0,0,0,5.7-.564.429.429,0,0,1,.214.038c.252.079.524.176.836.292a10.973,10.973,0,0,1-4.355.914,20.342,20.342,0,0,1-8.322-1.536,5.209,5.209,0,0,1-.526-.369m.738,1.01a20.742,20.742,0,0,0,9.256,1.361,11.625,11.625,0,0,0,3.52-.913,1.35,1.35,0,0,1,1.127-.039c.02.039.02.078.039.117a16.5,16.5,0,0,1-1.867.661c-1.206.234-2.411.409-3.617.544a14.992,14.992,0,0,1-5.5-.349c-.738-.194-1.478-.428-2.236-.623-.409-.1-.506-.427-.72-.758m.992,1.341c.409.117.74.194,1.05.292s.623.214.934.292a19.629,19.629,0,0,0,9.838-.407,3.492,3.492,0,0,0,1.789-.895.185.185,0,0,1,.175-.039c.214.039.428.1.74.156a5.218,5.218,0,0,1-.642.33,21.448,21.448,0,0,1-5.716,1.556,18.462,18.462,0,0,1-6.922-.33,2.014,2.014,0,0,1-1.244-.954m1.381,1.478c.214.039.409.078.6.117.913.137,1.847.331,2.76.389a22.166,22.166,0,0,0,7.972-1.206,13.03,13.03,0,0,0,2.314-1.069.9.9,0,0,1,.855-.038,11.713,11.713,0,0,1-1.554.8,30.644,30.644,0,0,1-5.873,1.613,15.651,15.651,0,0,1-6.086.039,1.518,1.518,0,0,1-.992-.642m1.419,1.244c.194.02.331.039.448.039.8.058,1.575.155,2.371.137a26.9,26.9,0,0,0,8.283-1.692,17.349,17.349,0,0,0,2.119-.992,2.472,2.472,0,0,0,.409-.466c.039-.039.1-.1.155-.1.234,0,.486.02.72.039a2.307,2.307,0,0,1-.564.5,23.606,23.606,0,0,1-3.909,1.944,19.651,19.651,0,0,1-8.458,1.343,2.183,2.183,0,0,1-1.575-.759m2.762,1.809c-.272-.175-.564-.311-.895-.506.389,0,.72-.02,1.03,0a20.765,20.765,0,0,0,11.2-3.286,10.585,10.585,0,0,0,1.127-.953c.059-.039.117-.1.176-.1.31-.039.6-.059,1.01-.079-.214.194-.33.331-.486.448-.583.389-1.147.816-1.75,1.167a20.173,20.173,0,0,1-7.913,3.032c-.895.117-1.789.214-2.683.351a1.081,1.081,0,0,1-.817-.078m1.361.564a1.748,1.748,0,0,1,.6-.117,21.954,21.954,0,0,0,11.219-4.258c.447-.331.817-.758,1.244-1.147a1.682,1.682,0,0,1,.369-.156c.1.623.117.662-.31.992a20.169,20.169,0,0,1-2.139,1.5c-1.361.8-2.762,1.556-4.181,2.216a21.9,21.9,0,0,1-5.561,1.3,2.105,2.105,0,0,1-1.244-.331m2.177.72c4.337-.409,7.914-2.509,11.337-4.94.038.254.038.254-.331.642a11.714,11.714,0,0,1-3.635,2.508,34.226,34.226,0,0,1-6.028,1.983,2.452,2.452,0,0,1-1.343-.193m10.928-.623a7.806,7.806,0,0,1-1.128.427.072.072,0,0,1-.018-.058c.447-.331.893-.661,1.341-.972a.146.146,0,0,1,.078.039c-.078.194-.137.466-.272.564m.272-1.322a4.85,4.85,0,0,1-1.147.836c-.895.486-1.809.895-2.722,1.361a4.355,4.355,0,0,1-1.789.311,19.348,19.348,0,0,0,5.775-3.111c-.02.214,0,.486-.117.6m.02-1.284a17.843,17.843,0,0,1-6.766,3.558,3.5,3.5,0,0,1-2.061.137c3.266-.934,6.455-1.867,8.982-4.258a.971.971,0,0,1-.155.564m1.361,1.244a.977.977,0,0,1-.934,1.012c0-.079.02-.156.02-.214a22.087,22.087,0,0,0-1.885-12.775,38.493,38.493,0,0,0-4.881-7.33c-.117-.155-.214-.234,0-.409.194-.135.292-.135.427.059,1.031,1.613,2.1,3.207,3.093,4.822a26.223,26.223,0,0,1,4,10.635,20.209,20.209,0,0,1,.156,4.2m1.224-.1c-.233.155-.486.292-.758.466.039-.447.1-.836.1-1.2a23.657,23.657,0,0,0-1.925-9.819,56.334,56.334,0,0,0-5.23-9c-.428-.642-.448-.623.194-1.089.1.135.155.272.252.409a32.067,32.067,0,0,1,4.141,6.591,32.6,32.6,0,0,1,3.19,10.48c.1.953.116,1.925.155,2.877a.4.4,0,0,1-.117.292m1.458-1.03c-.252.213-.524.389-.817.621,0-.135-.018-.175-.018-.233a24.019,24.019,0,0,0-.953-6.962,41.751,41.751,0,0,0-2.839-7.194,31.912,31.912,0,0,0-3.811-5.814,1.984,1.984,0,0,0-.349-.33c.194-.175.369-.351.583-.545.116.137.213.254.311.37a33.108,33.108,0,0,1,3.286,5.151,61.732,61.732,0,0,1,2.974,7.02,20.393,20.393,0,0,1,1.672,7.661c0,.078.018.214-.039.253m1.109-.954c-.156.176-.331.311-.565.525V317.4a16.467,16.467,0,0,0-.719-4.569c-.583-1.789-1.264-3.559-1.925-5.327a36.2,36.2,0,0,0-5.581-10.111c-.038-.039,0-.194.02-.292a1.235,1.235,0,0,1,.252.078.535.535,0,0,1,.156.194c1.089,1.516,2.177,3.014,3.246,4.55a32.2,32.2,0,0,1,2.976,5.756,22.81,22.81,0,0,1,2.256,9.177.353.353,0,0,1-.117.272m.6-.583a.939.939,0,0,1-.02-.213,16.346,16.346,0,0,0-.817-5.115,49.868,49.868,0,0,0-2.78-6.766,52.037,52.037,0,0,0-5.036-7.544c-.234-.311-.117-.428.078-.623.272-.252.311.1.409.194a2.773,2.773,0,0,1,.486.583c.875,1.264,1.768,2.508,2.566,3.811a41.379,41.379,0,0,1,3.5,6.28,26.416,26.416,0,0,1,2.236,8.167,1.3,1.3,0,0,1-.622,1.224m1.127-1.244c-.059-.506-.078-.913-.137-1.322A27.277,27.277,0,0,0,342,305.1c-1.069-2.022-2.294-3.966-3.52-5.911a21.683,21.683,0,0,0-2.546-3.4c.31-.466.349-.486.564-.233,1.089,1.361,2.2,2.663,3.208,4.083a39.721,39.721,0,0,1,4.375,8.224,22.862,22.862,0,0,1,1.691,5.911,1.911,1.911,0,0,1-.641,1.536m1.167-1.672c-.175-.8-.272-1.554-.466-2.314a42.225,42.225,0,0,0-4.55-10.266,39.484,39.484,0,0,0-4.414-5.891c-.214-.254-.194-.369.117-.681.252-.254.311.038.409.155a51.537,51.537,0,0,1,4.082,5.542,38.41,38.41,0,0,1,5.134,12.327,1.185,1.185,0,0,1-.311,1.127m.778-1.361c-.02-.116-.059-.175-.059-.233a32.615,32.615,0,0,0-2.586-7.583,46.2,46.2,0,0,0-6.728-10.286c-.233-.272-.292-.447.039-.661.078.1.137.194.214.292.972,1.224,1.983,2.411,2.917,3.675a37.624,37.624,0,0,1,6.455,13.591,1.314,1.314,0,0,1-.252,1.2m.8-1.594a.247.247,0,0,0-.117-.02l-.059-.175a36.335,36.335,0,0,0-4.822-11.044,40.7,40.7,0,0,0-4.413-5.873,2.383,2.383,0,0,0-.506-.35c.135-.234.311-.466.466-.74.117-.175.234-.175.389-.058.234.194.466.389.681.6a29.3,29.3,0,0,1,3.072,3.849,29.981,29.981,0,0,1,5.367,13.066,3.279,3.279,0,0,1-.058.74m.349-3.6a3.488,3.488,0,0,0,.137-.641,20.456,20.456,0,0,0,.349-5.115c.564,1.536.272,6.728-.428,7.738a3.287,3.287,0,0,1-.058-1.983" transform="translate(-125.153 -286.204)" fill="#bc8e40"/><path d="M298.052,330.318H125.814V297.146H298.052Zm-170.98-1.258H296.8V298.4H127.072Z" transform="translate(-125.814 -283.681)" fill="#00386c"/><rect width="0.629" height="11.62" transform="translate(0.314 14.097)" fill="#00386c"/><rect width="0.629" height="6.493" transform="translate(2.904 14.098)" fill="#00386c"/><rect width="0.629" height="6.493" transform="translate(5.496 14.098)" fill="#00386c"/><rect width="0.629" height="6.493" transform="translate(8.085 14.098)" fill="#00386c"/><rect width="0.629" height="6.493" transform="translate(10.676 14.098)" fill="#00386c"/><rect width="0.629" height="6.493" transform="translate(13.268 14.098)" fill="#00386c"/><rect width="0.629" height="6.493" transform="translate(15.858 14.098)" fill="#00386c"/><rect width="0.629" height="6.493" transform="translate(18.449 14.098)" fill="#00386c"/><rect width="0.629" height="6.493" transform="translate(21.039 14.098)" fill="#00386c"/><rect width="0.629" height="6.493" transform="translate(23.63 14.098)" fill="#00386c"/><rect width="0.629" height="6.493" transform="translate(26.22 14.098)" fill="#00386c"/><rect width="0.629" height="6.493" transform="translate(31.401 14.098)" fill="#00386c"/><rect width="0.629" height="6.493" transform="translate(33.992 14.098)" fill="#00386c"/><rect width="0.629" height="6.493" transform="translate(36.582 14.098)" fill="#00386c"/><rect width="0.629" height="6.493" transform="translate(39.173 14.098)" fill="#00386c"/><rect width="0.629" height="6.493" transform="translate(41.763 14.098)" fill="#00386c"/><rect width="0.629" height="6.493" transform="translate(44.355 14.098)" fill="#00386c"/><rect width="0.629" height="6.493" transform="translate(46.946 14.098)" fill="#00386c"/><rect width="0.629" height="6.493" transform="translate(49.535 14.098)" fill="#00386c"/><rect width="0.629" height="6.493" transform="translate(52.127 14.098)" fill="#00386c"/><rect width="0.629" height="6.493" transform="translate(54.717 14.098)" fill="#00386c"/><rect width="0.629" height="6.493" transform="translate(59.898 14.098)" fill="#00386c"/><rect width="0.629" height="6.493" transform="translate(62.489 14.098)" fill="#00386c"/><rect width="0.629" height="6.493" transform="translate(65.079 14.098)" fill="#00386c"/><rect width="0.629" height="6.493" transform="translate(67.67 14.098)" fill="#00386c"/><rect width="0.629" height="6.493" transform="translate(70.26 14.098)" fill="#00386c"/><rect width="0.629" height="6.493" transform="translate(72.852 14.098)" fill="#00386c"/><rect width="0.629" height="6.493" transform="translate(75.442 14.098)" fill="#00386c"/><rect width="0.629" height="6.493" transform="translate(78.032 14.098)" fill="#00386c"/><rect width="0.629" height="6.493" transform="translate(80.623 14.098)" fill="#00386c"/><rect width="0.629" height="6.493" transform="translate(83.214 14.098)" fill="#00386c"/><rect width="0.629" height="6.493" transform="translate(88.395 14.098)" fill="#00386c"/><rect width="0.629" height="6.493" transform="translate(90.985 14.098)" fill="#00386c"/><rect width="0.629" height="6.493" transform="translate(93.576 14.098)" fill="#00386c"/><rect width="0.629" height="6.493" transform="translate(96.167 14.098)" fill="#00386c"/><rect width="0.629" height="6.493" transform="translate(98.757 14.098)" fill="#00386c"/><rect width="0.629" height="6.493" transform="translate(101.348 14.098)" fill="#00386c"/><rect width="0.629" height="6.493" transform="translate(103.939 14.098)" fill="#00386c"/><rect width="0.629" height="6.493" transform="translate(106.529 14.098)" fill="#00386c"/><rect width="0.629" height="6.493" transform="translate(109.119 14.098)" fill="#00386c"/><rect width="0.629" height="6.493" transform="translate(111.711 14.098)" fill="#00386c"/><rect width="0.629" height="6.493" transform="translate(116.892 14.098)" fill="#00386c"/><rect width="0.629" height="6.493" transform="translate(119.482 14.098)" fill="#00386c"/><rect width="0.629" height="6.493" transform="translate(122.073 14.098)" fill="#00386c"/><rect width="0.629" height="6.493" transform="translate(124.663 14.098)" fill="#00386c"/><rect width="0.629" height="6.493" transform="translate(127.254 14.098)" fill="#00386c"/><rect width="0.629" height="6.493" transform="translate(129.844 14.098)" fill="#00386c"/><rect width="0.629" height="6.493" transform="translate(132.436 14.098)" fill="#00386c"/><rect width="0.629" height="6.493" transform="translate(135.025 14.098)" fill="#00386c"/><rect width="0.629" height="6.493" transform="translate(137.616 14.098)" fill="#00386c"/><rect width="0.629" height="6.493" transform="translate(140.208 14.098)" fill="#00386c"/><rect width="0.629" height="6.493" transform="translate(145.389 14.098)" fill="#00386c"/><rect width="0.629" height="6.493" transform="translate(147.979 14.098)" fill="#00386c"/><rect width="0.629" height="6.493" transform="translate(150.57 14.098)" fill="#00386c"/><rect width="0.629" height="6.493" transform="translate(153.16 14.098)" fill="#00386c"/><rect width="0.629" height="6.493" transform="translate(155.751 14.098)" fill="#00386c"/><rect width="0.629" height="6.493" transform="translate(158.341 14.098)" fill="#00386c"/><rect width="0.629" height="6.493" transform="translate(160.932 14.098)" fill="#00386c"/><rect width="0.629" height="6.493" transform="translate(163.522 14.098)" fill="#00386c"/><rect width="0.629" height="6.493" transform="translate(166.113 14.098)" fill="#00386c"/><rect width="0.629" height="6.493" transform="translate(168.703 14.098)" fill="#00386c"/><rect width="0.629" height="11.62" transform="translate(28.811 14.097)" fill="#00386c"/><rect width="0.629" height="11.62" transform="translate(57.308 14.097)" fill="#00386c"/><rect width="0.629" height="11.62" transform="translate(85.804 14.097)" fill="#00386c"/><rect width="0.629" height="11.62" transform="translate(114.301 14.097)" fill="#00386c"/><rect width="0.629" height="11.62" transform="translate(142.798 14.097)" fill="#00386c"/><rect width="0.629" height="11.62" transform="translate(171.295 14.097)" fill="#00386c"/></svg>