<svg xmlns="http://www.w3.org/2000/svg" xmlns:xlink="http://www.w3.org/1999/xlink" width="270" height="88.839" viewBox="0 0 270 88.839"><defs><clipPath id="a"><rect width="270" height="88.839" fill="none"/></clipPath></defs><g clip-path="url(#a)"><path d="M212.2,86.973a30.713,30.713,0,0,0-2.883-5.738c-1.6-2.527-3.658-4.634-6.176-4.835-2.28-.192-3.831-.255-4.953-.31a10.975,10.975,0,0,1-4.141-.639c-1-.374-2.189-.812-3.567-1.314-4.26-1.56-9.843-3.594-15.653-5.957-.274-.109-.556-.219-.839-.338-3.585-1.45-7.243-3.028-10.718-4.68a92.815,92.815,0,0,1-10.5-5.7c-.182-.128-.365-.246-.547-.374a22.106,22.106,0,0,1-5.884-5.209,5.567,5.567,0,0,1-.73-1.788l-.009-.064q-.575-.109-1.177-.219l.091.483c.474,2.545,2.363,5.172,6.686,8.182.173.119.356.246.547.374a74.778,74.778,0,0,0,9.386,5.163c3.393,1.605,7.188,3.2,10.983,4.707.292.119.584.228.867.338,6.477,2.545,12.871,4.8,17.222,6.394,1.368.5,2.554.94,3.558,1.3a11.63,11.63,0,0,0,4.388.693c1.122.046,2.664.119,4.926.3,4.041.338,6.924,6.486,8.356,10.381.657,1.8,1.314,3.567,1.56,3.567a.354.354,0,0,0,.137-.018c.3-.073-.1-2.554-.93-4.707" transform="translate(-12.681 -4.374)" fill="#00386c"/><path d="M146.969.474A4.1,4.1,0,0,1,146,1.834a1.836,1.836,0,0,1-.228.128,2.587,2.587,0,0,1-1.4.219c-.036-.009-.073-.009-.109-.018,0,0-.319-.055-.365-.064a5.4,5.4,0,0,1-.812-.246c-.073-.027-.3-.146-.319-.155a1.743,1.743,0,0,1-.529-.429c-.347.027-.693.046-1.04.064a19.492,19.492,0,0,1-6.02,9.478c-10.062,8.675-19.32,13.318-26.819,13.446-7.088-.109-14.331-3.43-19.193-6.23a68.271,68.271,0,0,1-9.113-6.239A20.39,20.39,0,0,1,73.921,1.359h-.5A20.842,20.842,0,0,0,79.741,12.15a68.617,68.617,0,0,0,9.177,6.294c4.826,2.773,11.977,6.066,19.047,6.294.027,0,.046.009.073.009h.693a.27.27,0,0,0,.091-.018,29.647,29.647,0,0,0,11.384-3.138,70.554,70.554,0,0,0,15.3-10.417,20.09,20.09,0,0,0,6.2-9.815,2.036,2.036,0,0,0,.7.693,64.365,64.365,0,0,0-4.479,13.473c-.456,1.87-1.049,4.689-1.049,4.725-1.4,10.2.1,18.718,1.177,24.483.018.119.046.228.064.338l.064.365q.6.109,1.177.219l-.128-.712h-.009l-.009-.073c-1.04-5.61-2.582-13.957-1.3-23.945a1.5,1.5,0,0,0,.465-.137c1.706-.839,3.174-6.048,4.926-12.771.438-1.669.921-3.53,1.2-4.333a1.285,1.285,0,0,0,.182.009,3.266,3.266,0,0,0,1.487-.338A5.4,5.4,0,0,0,148.657,0c-.556.173-1.122.338-1.688.474m-5.008,7.2c-.62,2.408-1.4,5.4-2.2,7.781a14.207,14.207,0,0,1-1.66,3.758,1.688,1.688,0,0,1-.283.219.342.342,0,0,1-.091-.009,63.033,63.033,0,0,1,5.108-17.149l.082.027a5.547,5.547,0,0,0,.584.2,52.589,52.589,0,0,0-1.542,5.172" transform="translate(-6.446)" fill="#00386c"/><path d="M61.28,58.667a.033.033,0,0,1-.009-.027c-.192.109-.392.228-.593.347C46.767,67.215,22.868,76.273,19.256,77.623a11.141,11.141,0,0,1-4.132.639c-1.131.046-2.682.119-4.953.3A6,6,0,0,0,6.9,79.976C4.15,82.029,2.161,86.061.975,89.135c-.83,2.135-1.2,4.753-.83,4.853.064,0,1.724-3.822,3.348-7.142,1.441-2.965,3.795-6.54,6.75-6.787,2.262-.182,3.795-.255,4.917-.3a11.939,11.939,0,0,0,4.433-.7c3.594-1.341,16.255-6.166,28.2-11.767q8.306-3.886,13.674-7.1c.2-.119.392-.237.584-.356a12.745,12.745,0,0,1-.766-1.168" transform="translate(0 -5.149)" fill="#00386c"/><path d="M76.008,14.762c-.046-.155-1.022-2.755-1.332-3.375a85.878,85.878,0,0,0-3.567-9.14A3.131,3.131,0,0,0,72.3,1.49h-.766a4.061,4.061,0,0,1-.566.292c-.046.018-.538.173-.611.192a3.885,3.885,0,0,1-3.047-.027,1.889,1.889,0,0,1-.374-.456H65.4A3.584,3.584,0,0,0,66.512,3.1a3.319,3.319,0,0,0,1.925.657,39.511,39.511,0,0,0,6.176,12.1.539.539,0,0,0,.036.055.655.655,0,0,0,.228.219.273.273,0,0,0,.073.036c4,14.969,2,25.642.93,29.592,0,.009,0,.009-.009.018a3.427,3.427,0,0,1-.338.812,14.728,14.728,0,0,1-4.1,4.1c-1.286.949-2.782,1.925-4.424,2.919a.033.033,0,0,0,.009.027,12.744,12.744,0,0,0,.766,1.168c5.555-3.375,8.648-6.194,9.377-8.52a1.155,1.155,0,0,0,.055-.164c.055-.192.109-.4.164-.62,1.149-4.588,2.892-15.626-1.377-30.75M69.8,3.46c.073-.091-.036-.5-.219-.8A9.414,9.414,0,0,0,70.644,2.4a84.357,84.357,0,0,1,4.324,11.6A39.293,39.293,0,0,1,69.8,3.46" transform="translate(-5.742 -0.131)" fill="#00386c"/><path d="M179.961,82.5c-2.387.864-24.425-.153-31.485-1.73-6.673-1.49-13.068.976-19.84,3.586-4.743,1.829-9.647,3.72-15.1,4.491-.283.04-.563.364-1.224,1.158-1.4,1.688-4.02,4.827-7.806,4.827-2.95,0-6.011-2.951-7.839-4.714-.908-.875-1.287-1.231-1.57-1.271-5.444-.771-10.344-2.662-15.084-4.491-6.767-2.61-13.158-5.076-19.827-3.586-7.271,1.625-30.585,4-33.006,3.122a.245.245,0,0,0-.313.146c-.046.127,1.016.483,1.8.508,6.188.192,25.757-1.99,31.622-3.3,6.523-1.458,12.848.982,19.545,3.566,4.764,1.838,9.692,3.739,15.187,4.517a8.11,8.11,0,0,1,1.3,1.14c1.882,1.814,5.032,4.851,8.179,4.851,4.014,0,6.724-3.255,8.181-5a5.783,5.783,0,0,1,.918-.987c5.5-.779,10.434-2.68,15.2-4.518,6.7-2.583,13.031-5.023,19.559-3.566,5.676,1.268,23.426,2.352,29.749,1.984a4.568,4.568,0,0,0,2.154-.584.244.244,0,0,0-.312-.146" transform="translate(-2.359 -7.052)" fill="#00386c"/><path d="M216.975,49.51c-11.9-3.129-26.4.319-34.463,8.2-3.758,3.667-9.195,7.024-15.453,10.007-.62.3-1.241.584-1.87.876-19.53,8.876-45.883,14.321-54.714,15.042,9.113-5.336,27.74-16.766,34.344-24.912a15.792,15.792,0,0,0,1.022-1.387,7.344,7.344,0,0,0,1.35-3.229c.155-1.66-1.642-3.047-5.336-4.132-.967-.283-2.08-.547-3.311-.784l.128.712c1.086.228,2.089.465,2.983.73,2.3.666,5.008,1.806,4.853,3.412a6.635,6.635,0,0,1-1.213,2.919,15.305,15.305,0,0,1-1.022,1.387c-6.723,8.246-26.764,20.388-35.311,25.359-.246.009-.465,0-.648-.009-6.13-.347-33.523-15.124-40.511-24.766a12.746,12.746,0,0,1-.766-1.168.033.033,0,0,1-.009-.027c-.812-1.441-.994-2.618-.529-3.5.7-1.368,4.068-2.563,9.049-3.521a3.426,3.426,0,0,0,.338-.812c-5.428,1.049-9.158,2.4-10,4.023-.575,1.113-.383,2.509.547,4.16,0,.009.009.009.009.018a12.448,12.448,0,0,0,.775,1.186c6.933,9.569,33.706,24.128,40.647,25.058-1.724.994-2.773,1.578-2.837,1.615l.328.593c.292-.155,1.688-.93,3.813-2.162,7.361-.219,36.123-5.9,56.885-15.462.62-.292,1.241-.584,1.843-.876,6.1-2.946,11.4-6.249,15.088-9.852C190.767,50.6,205.3,47.147,216.8,50.166c7.425,1.952,12.461,6.3,14.194,12.251l.657-.192c-1.8-6.185-7.015-10.7-14.677-12.716" transform="translate(-5.757 -4.246)" fill="#bc8e40"/><path d="M249.963,70.4l-.262-.478a23.111,23.111,0,0,1,5.568-2.432A39.047,39.047,0,0,1,270.043,65.8a55.3,55.3,0,0,1,6.7,1.153,32.1,32.1,0,0,1,8.519,3.143c.672.359,1.282.837,1.918,1.262.185.123.383.244.14.493-.181.185-.223.533-.66.317-1.568-.773-3.133-1.561-4.744-2.234a39.28,39.28,0,0,0-22.71-2.566,33.027,33.027,0,0,0-8.384,2.568c-.275.132-.539.29-.858.462" transform="translate(-21.925 -5.766)" fill="#d7c29f"/><path d="M286.593,72.976c-.194.493-.414.526-.815.348-1.96-.872-3.91-1.781-5.917-2.533a31.176,31.176,0,0,0-8.078-1.7,49.388,49.388,0,0,0-13.74.6,34.594,34.594,0,0,0-6.841,2.14c-.227.094-.359.1-.481-.125-.109-.2-.239-.388-.4-.652.749-.338,1.439-.709,2.168-.971a39.139,39.139,0,0,1,21.631-1.721,43.235,43.235,0,0,1,9.688,3.283c.927.438,1.851.881,2.789,1.328" transform="translate(-21.979 -5.932)" fill="#d7c29f"/><path d="M252.448,74.1a40.229,40.229,0,0,1,5.784-1.832c4.776-1.117,9.558-.822,14.366-.29a39.224,39.224,0,0,1,9.8,2.372c.841.322,1.635.766,2.5,1.178a8.467,8.467,0,0,1-.713.66.472.472,0,0,1-.4-.006,39.38,39.38,0,0,0-9.839-3.111,36.523,36.523,0,0,0-14.266.019A33.152,33.152,0,0,0,253.634,75a.441.441,0,0,1-.383-.022c-.266-.248-.5-.535-.8-.874" transform="translate(-22.166 -6.278)" fill="#d7c29f"/><path d="M251.415,72.667c8.69-3.791,23.6-4.579,34.371,1.555-.277.6-.4.662-.942.39a38.038,38.038,0,0,0-14.252-3.668,44.3,44.3,0,0,0-7.759-.231,34.219,34.219,0,0,0-10.082,2.394l-.128.054c-.762.318-.762.318-1.207-.494" transform="translate(-22.075 -6.121)" fill="#d7c29f"/><path d="M286.449,64.679a3.633,3.633,0,0,0,.326-.7,52.749,52.749,0,0,0,.935-9.229,45.875,45.875,0,0,0-2.03-15.069c-.021-.071-.035-.144-.052-.216l.121-.085a3.921,3.921,0,0,1,.546.744,37.764,37.764,0,0,1,2.744,17.611,37.088,37.088,0,0,1-.785,6.15c-.089.37-.238.727-.359,1.09-.078.235-.2.314-.447.183-.336-.179-.685-.331-1-.48" transform="translate(-25.079 -3.458)" fill="#d7c29f"/><path d="M253.973,75.708c10.087-3.963,19.894-2.906,29.721,1.185a5.9,5.9,0,0,1-.742.582.633.633,0,0,1-.443-.041c-1.838-.682-3.637-1.492-5.514-2.037a31.661,31.661,0,0,0-10.067-1.07,44.577,44.577,0,0,0-9.73,1.382,12.434,12.434,0,0,0-1.835.6.762.762,0,0,1-1.036-.216c-.093-.116-.2-.22-.353-.384" transform="translate(-22.3 -6.429)" fill="#d7c29f"/><path d="M276.554,61.687c-.994-.09-.973-.088-.92-1.049a70.42,70.42,0,0,0-.246-13.133,29.734,29.734,0,0,0-4.319-11.845c-.256-.413-.57-.791-.892-1.234.4,0,.763-.024,1.12,0a.479.479,0,0,1,.3.236c.586,1.057,1.206,2.1,1.723,3.19a41.84,41.84,0,0,1,3.411,13.4,41.806,41.806,0,0,1-.162,9.815c-.023.193-.011.39-.016.612" transform="translate(-23.723 -3.022)" fill="#d7c29f"/><path d="M279.2,35.856a2.433,2.433,0,0,1,1.7,1.243,28.7,28.7,0,0,1,2.026,7.484,49.324,49.324,0,0,1,.66,11.731c-.158,2.167-.514,4.32-.793,6.478-.055.426-.127.431-.764.131a25.421,25.421,0,0,0,.52-5.339c.047-2.9.11-5.8-.052-8.689a34.688,34.688,0,0,0-2.583-11.533c-.2-.477-.444-.936-.718-1.507" transform="translate(-24.515 -3.148)" fill="#d7c29f"/><path d="M274.821,34.717c.373.069.662.106.94.185a.562.562,0,0,1,.295.236c2.176,3.479,3,7.382,3.561,11.372a40.107,40.107,0,0,1,.556,8.154c-.151,2.342-.348,4.679-.526,7.018A.846.846,0,0,1,279.6,62a1.129,1.129,0,0,1-.233.244c-.071-.1-.215-.217-.2-.308a45.631,45.631,0,0,0-.58-14.552c-.435-2.336-.858-4.678-1.4-6.99A20.741,20.741,0,0,0,274.97,35c-.036-.065-.069-.132-.149-.284" transform="translate(-24.13 -3.048)" fill="#d7c29f"/><path d="M249.33,69.166c-.341-.532-.353-.556.292-.879a34.435,34.435,0,0,1,7.688-2.78,42.948,42.948,0,0,1,15.448-.788,37.244,37.244,0,0,1,8.77,2.192,22.225,22.225,0,0,1,6.281,3.412c.085.072.074.259.109.392-.111.007-.262.065-.327.014a24.75,24.75,0,0,0-7.542-3.649,41.106,41.106,0,0,0-10.016-2.094,39.277,39.277,0,0,0-17.2,2.54c-1.194.466-2.327,1.087-3.5,1.642" transform="translate(-21.872 -5.65)" fill="#d7c29f"/><path d="M278.24,62.006l-.976-.2a3.9,3.9,0,0,0,.169-.587,40.977,40.977,0,0,0,.3-8.763,51.819,51.819,0,0,0-1.627-9.606,30.275,30.275,0,0,0-3.514-8.127c-.039-.061-.067-.13-.135-.267.465.043.875.068,1.279.13.084.013.161.153.218.249a26.321,26.321,0,0,1,3.194,9.355A78.179,78.179,0,0,1,278.5,53.7a41.446,41.446,0,0,1-.158,7.714c-.026.181-.064.36-.106.59" transform="translate(-23.923 -3.025)" fill="#d7c29f"/><path d="M276.974,35.2a1.681,1.681,0,0,1,1.488.908,33.718,33.718,0,0,1,2.924,10.27,53.934,53.934,0,0,1,.32,9.047c-.026,1.929-.173,3.858-.277,5.786a3.925,3.925,0,0,1-.145.952c-.054.172.128.576-.333.481-.328-.068-.525-.135-.483-.611a64.937,64.937,0,0,0,.5-11.427,61.661,61.661,0,0,0-1.418-9.134,20.357,20.357,0,0,0-2.451-6.031c-.038-.061-.068-.128-.129-.241" transform="translate(-24.319 -3.091)" fill="#d7c29f"/><path d="M282.238,78.212c-.582.592-.639.622-1.283.283a25.089,25.089,0,0,0-11.072-2.5,41.811,41.811,0,0,0-10.332.9,20.612,20.612,0,0,0-2.653.761.865.865,0,0,1-1.058-.2c-.093-.1-.2-.182-.306-.272-.022-.071-.043-.143-.064-.215a2.1,2.1,0,0,0,.55-.036,37.824,37.824,0,0,1,7.62-1.488,36.932,36.932,0,0,1,12.576.564,28.3,28.3,0,0,1,5.833,2.09,1.914,1.914,0,0,1,.189.116" transform="translate(-22.431 -6.598)" fill="#d7c29f"/><path d="M271.213,43.883c-.766.384-1.507.721-2.214,1.116a19.835,19.835,0,0,0-5.389,4.611,31.428,31.428,0,0,0-5.274,8.317,15.874,15.874,0,0,0-1.4,5.074.305.305,0,0,1-.163.213,5.443,5.443,0,0,1-.606.166,9.408,9.408,0,0,1,.49-3.016,29.068,29.068,0,0,1,2.625-5.963,31.746,31.746,0,0,1,4.964-6.758,20.448,20.448,0,0,1,6.214-4.435c.319-.147.468-.114.561.222a3.616,3.616,0,0,0,.189.452" transform="translate(-22.492 -3.787)" fill="#d7c29f"/><path d="M281.768,37a1.482,1.482,0,0,1,1.085,1.014,47.666,47.666,0,0,1,2.5,16.652,63.248,63.248,0,0,1-.774,8.647c-.026.168.1.526-.335.425-.537-.124-.643-.228-.567-.657a50.729,50.729,0,0,0,.912-9.23,52.976,52.976,0,0,0-1.818-14.055c-.264-.938-.659-1.839-1.007-2.8" transform="translate(-24.74 -3.249)" fill="#d7c29f"/><path d="M257.614,63.107c.349-1.272.6-2.49,1.018-3.651a29.535,29.535,0,0,1,5.6-9.236,18.819,18.819,0,0,1,6.906-5.383c.185-.078.406-.318.538.078.095.286.277.541-.188.723a19.671,19.671,0,0,0-1.915.9,16.212,16.212,0,0,0-5.275,4.649,35.757,35.757,0,0,0-5.273,9.963,7.922,7.922,0,0,0-.276,1.162c-.141.73-.134.732-1.13.794" transform="translate(-22.62 -3.924)" fill="#d7c29f"/><path d="M279.764,80.252c-.863.351-1.605.662-2.357.948a.588.588,0,0,1-.383-.071,23.664,23.664,0,0,0-14.771-1.71c-.824.174-1.645.368-2.475.512a.96.96,0,0,1-.617-.228,31.424,31.424,0,0,1,10.3-1.5,28.588,28.588,0,0,1,10.3,2.048" transform="translate(-22.755 -6.867)" fill="#d7c29f"/><path d="M254.712,63.639a18.511,18.511,0,0,1,.63-4.114A26.691,26.691,0,0,1,258.908,52a28.077,28.077,0,0,1,6.71-7.426,18.2,18.2,0,0,1,4.334-2.49c.333-.135.334-.132.48.275-1,.526-2.028,1-2.989,1.59A23.023,23.023,0,0,0,261.67,49.3a35.754,35.754,0,0,0-4.964,8.463,15.168,15.168,0,0,0-1.385,5.5c-.005.166-.293.324-.449.485l-.161-.106" transform="translate(-22.365 -3.688)" fill="#d7c29f"/><path d="M276.378,81.781q-1.45.3-2.9.6a.194.194,0,0,1-.133-.015,12.386,12.386,0,0,0-3.935-1.156,16.051,16.051,0,0,0-7.064-.106c-.473.1-1.044-.273-1.553-.484A23.572,23.572,0,0,1,276.36,81.63c.006.05.012.1.018.151" transform="translate(-22.899 -7.002)" fill="#d7c29f"/><path d="M259.473,62.879a20.284,20.284,0,0,1,.565-2.044,34.159,34.159,0,0,1,5.386-9.635,14.488,14.488,0,0,1,5.65-4.456c.368-.149.711-.358,1.127-.571.095.317.183.614.273.911a10.925,10.925,0,0,0-5.646,3.574,32.3,32.3,0,0,0-4.1,6.145,17.111,17.111,0,0,0-1.764,4.962c-.183,1.024-.285,1.055-1.487,1.114" transform="translate(-22.783 -4.054)" fill="#d7c29f"/><path d="M281,79.234a.879.879,0,0,1-1.1.272,31.805,31.805,0,0,0-20.5-.8,1.058,1.058,0,0,0-.348.113c-.756.567-1.3.107-1.919-.537a2.77,2.77,0,0,0,.533-.052A39.461,39.461,0,0,1,268.859,76.8a29.925,29.925,0,0,1,8.505,1.07c1.209.358,2.369.883,3.638,1.366" transform="translate(-22.578 -6.743)" fill="#d7c29f"/><path d="M283.683,38.043a1.729,1.729,0,0,1,1.065,1.147,48.1,48.1,0,0,1,1.916,18.875c-.2,1.965-.5,3.919-.759,5.878-.019.144-.03.29-.045.436-.483-.018-.541-.231-.469-.685a58.4,58.4,0,0,0,.538-15.491,41.643,41.643,0,0,0-2.167-9.864c-.026-.068-.038-.141-.078-.3" transform="translate(-24.909 -3.34)" fill="#d7c29f"/><path d="M272.749,47.773a.49.49,0,0,1,.051.086c.2.732.2.726-.47,1.054a15.705,15.705,0,0,0-6.909,6.405,23.408,23.408,0,0,0-2.332,4.938c-.129.441-.2.9-.329,1.339a2.869,2.869,0,0,1-.379.917c-.113.152-.418.161-.706.259A18.16,18.16,0,0,1,263.121,58a34.816,34.816,0,0,1,4.14-6.451,10.738,10.738,0,0,1,4.77-3.485c.244-.087.481-.2.719-.3" transform="translate(-22.976 -4.195)" fill="#d7c29f"/><path d="M268.034,34.646a1.248,1.248,0,0,1,1.687.49,24.873,24.873,0,0,1,2.561,4.617,32.982,32.982,0,0,1,2.634,14.093c-.018,2.405-.129,4.81-.191,7.215-.007.3-.108.375-.416.338-.335-.04-.293-.191-.259-.431a48.651,48.651,0,0,0,.462-11.1,27.683,27.683,0,0,0-6.3-15c-.057-.071-.115-.141-.181-.223" transform="translate(-23.534 -3.029)" fill="#d7c29f"/><path d="M263.314,62.61c.355-1.14.616-2.312,1.076-3.4,1.714-4.047,4.141-7.506,8.219-9.527.174-.087.356-.159.565-.252.028.135.045.221.064.307.078.337.007.462-.365.67a15.114,15.114,0,0,0-2.688,1.9,18.758,18.758,0,0,0-4.619,6.237,31.6,31.6,0,0,0-1.212,3.415c-.231.709-.206.726-1.038.653" transform="translate(-23.12 -4.34)" fill="#d7c29f"/><path d="M248.36,49.4a2.656,2.656,0,0,1,1.183-1.844,24.928,24.928,0,0,1,10.01-4.091,31.858,31.858,0,0,1,5.491-.447,2.83,2.83,0,0,1,.938.176c-.254.174-.5.355-.764.517a.334.334,0,0,1-.227-.01,2.43,2.43,0,0,0-.751-.225,21.332,21.332,0,0,0-2.919.316,33.8,33.8,0,0,0-10.058,3.576c-.857.5-1.641,1.122-2.457,1.691-.134.093-.26.2-.445.342" transform="translate(-21.807 -3.777)" fill="#d7c29f"/><path d="M269.726,41.26a1.845,1.845,0,0,1-.505.058,18.174,18.174,0,0,0-2.1-.416,27.418,27.418,0,0,0-14.871,2.738,3.163,3.163,0,0,1-.719.265,2.423,2.423,0,0,1,1.11-1.161,26.39,26.39,0,0,1,6.851-2.226c1.972-.241,3.971-.313,5.959-.363a24.769,24.769,0,0,1,3.29.237c.68.074.675.117.982.867" transform="translate(-22.086 -3.526)" fill="#d7c29f"/><path d="M249.612,46.663c.248-.434.451-.774.638-1.121a1.463,1.463,0,0,1,.836-.637c1.051-.429,2.083-.9,3.119-1.366a25.483,25.483,0,0,1,10.516-1.9c.887,0,1.774.066,2.661.119a6.357,6.357,0,0,1,.806.162c-.452.233-.786.412-1.128.577a.465.465,0,0,1-.254.01,12.542,12.542,0,0,0-1.845-.282,25.945,25.945,0,0,0-14.214,3.762c-.346.217-.7.419-1.134.678" transform="translate(-21.917 -3.656)" fill="#d7c29f"/><path d="M260.205,48.635c-.26.325-.476.6-.7.87-.056.066-.127.154-.2.166a15.634,15.634,0,0,0-6.524,3.119,27.712,27.712,0,0,0-5.854,5.47,1.036,1.036,0,0,1-.167.139l-.13-.07a4.868,4.868,0,0,1,.328-.732,25.048,25.048,0,0,1,7.965-7.094,13.73,13.73,0,0,1,5.284-1.867" transform="translate(-21.655 -4.27)" fill="#d7c29f"/><path d="M273.757,52.349a.936.936,0,0,1-.386,1.23,12.983,12.983,0,0,0-4.318,6c-.343.911-.552,1.874-.833,2.81a.372.372,0,0,1-.2.234c-.8.181-.924.057-.784-.732a14.6,14.6,0,0,1,4.775-8.139c.424-.4.884-.757,1.334-1.128.123-.1.267-.181.413-.278" transform="translate(-23.46 -4.596)" fill="#d7c29f"/><path d="M249.107,66.957a14.316,14.316,0,0,1-.267-4.252,16.734,16.734,0,0,1,1.811-6.467A5.7,5.7,0,0,1,251.815,55l.095.088c-.293.795-.6,1.585-.877,2.384a20.359,20.359,0,0,0-1.282,8.351c0,.061.01.122.016.183.065.7.066.7-.66.952" transform="translate(-21.846 -4.829)" fill="#d7c29f"/><path d="M254.117,53.379c-.519,1.467-1.062,2.88-1.519,4.319a29.71,29.71,0,0,0-1.3,7.68c-.026.566-.047.565-.639.771-.022-.151-.049-.295-.062-.438a19.079,19.079,0,0,1,.973-7.424c.334-1.05.7-2.089,1.094-3.12a2.941,2.941,0,0,1,1.456-1.788" transform="translate(-21.998 -4.687)" fill="#d7c29f"/><path d="M273.48,51.021c.261.48-.116.571-.381.763a18.22,18.22,0,0,0-4.291,4.259,13.747,13.747,0,0,0-2.52,6.155c-.042.32-.16.413-.457.4-.242-.01-.486.026-.732.04.184-3.528,5.311-10.625,8.381-11.617" transform="translate(-23.277 -4.48)" fill="#d7c29f"/><path d="M259.308,50.712c-.666,1.051-1.338,2.09-1.989,3.143a21.475,21.475,0,0,0-3.4,10.372c-.019.4-.119.646-.589.649a1.347,1.347,0,0,1-.022-.2,20.126,20.126,0,0,1,1.65-7.452c.51-1.132.966-2.291,1.536-3.391.428-.825,1-1.574,1.507-2.358a1.377,1.377,0,0,1,1.311-.76" transform="translate(-22.241 -4.453)" fill="#d7c29f"/><path d="M246.988,54.4a2.571,2.571,0,0,1,.716-1.856,23.582,23.582,0,0,1,7.257-4.86,26.484,26.484,0,0,1,7.182-2.072c.255-.031.515-.036.894-.06-.283.273-.483.473-.692.662a.256.256,0,0,1-.2.075,4.337,4.337,0,0,0-2.522.19,24.828,24.828,0,0,0-10.876,5.992c-.295.289-.548.619-.826.926s-.562.6-.933,1" transform="translate(-21.687 -3.999)" fill="#d7c29f"/><path d="M261.5,47.074a1.686,1.686,0,0,1-1.242.708,14.261,14.261,0,0,0-4.389,1.321,26.334,26.334,0,0,0-9.106,7.5c.026-.488-.089-.912.283-1.291.686-.7,1.345-1.427,2.017-2.141a18.677,18.677,0,0,1,5.715-3.956c1.382-.656,2.8-1.244,4.241-1.763a17.37,17.37,0,0,1,2.446-.516c.012.046.025.09.036.136" transform="translate(-21.667 -4.121)" fill="#d7c29f"/><path d="M269.1,62.759c.094-2.215,2.281-6.86,4.947-8.608a1.8,1.8,0,0,1-.445,1.683,15.007,15.007,0,0,0-3.423,5.506c-.113.3-.212.608-.3.918-.161.556-.157.558-.777.5" transform="translate(-23.628 -4.755)" fill="#d7c29f"/><path d="M294.483,59.547a48.819,48.819,0,0,0-3.353-7.82c-.358-.706-.829-1.354-1.247-2.03a.777.777,0,0,1-.119-.242c-.128-.705-.247-1.412-.375-2.147,1.779,1.543,5.449,10.363,5.095,12.239" transform="translate(-25.409 -4.154)" fill="#d7c29f"/><path d="M253.585,41.573a2.989,2.989,0,0,1,1.319-1.095,43.428,43.428,0,0,1,7.793-1.784,14.538,14.538,0,0,1,5.565.319c.649.163.649.161.763.465-5.279-.384-10.507-.315-15.44,2.094" transform="translate(-22.266 -3.386)" fill="#d7c29f"/><path d="M256.905,51.613c-.439.775-.9,1.483-1.253,2.239-.612,1.3-1.177,2.624-1.733,3.951a20.937,20.937,0,0,0-1.378,7.182c-.009.172-.223.334-.342.5L252,65.4c.142-1.236.244-2.478.436-3.707a32.726,32.726,0,0,1,1.973-6.921c.185-.47.418-.924.564-1.4a2.792,2.792,0,0,1,1.93-1.754" transform="translate(-22.127 -4.532)" fill="#d7c29f"/><path d="M247.552,51.773a1.894,1.894,0,0,1,.663-1.325A20.156,20.156,0,0,1,254.8,46.5a37.963,37.963,0,0,1,7.387-2.078,14.07,14.07,0,0,1,2.2-.154,1.1,1.1,0,0,1-.951.509,15.771,15.771,0,0,0-3.188.365,27.9,27.9,0,0,0-9.38,3.905c-.971.659-1.833,1.48-2.742,2.228-.185.152-.362.314-.577.5" transform="translate(-21.736 -3.887)" fill="#d7c29f"/><path d="M290.148,51.446c.332.664.69,1.316.991,1.994.761,1.708,1.577,3.4,2.213,5.151a26.648,26.648,0,0,1,.926,3.874,2.927,2.927,0,0,1-.179,1.024l-.173.044a2.185,2.185,0,0,0-.013-.338,32.7,32.7,0,0,0-3.5-9.594,6.11,6.11,0,0,1-.38-2.115l.114-.04" transform="translate(-25.466 -4.517)" fill="#d7c29f"/><path d="M293.311,66.053a57.887,57.887,0,0,0-2.993-9.067,6.648,6.648,0,0,1-.16-1.919l.167-.035c.37.834.76,1.659,1.107,2.5a34.859,34.859,0,0,1,2.04,7.2,7.862,7.862,0,0,1,.02,1.329l-.182-.009" transform="translate(-25.477 -4.832)" fill="#d7c29f"/><path d="M256.069,39.394a4.5,4.5,0,0,1,2.329-1.206,22.2,22.2,0,0,1,9.612-.569c.205.037.374.275.531.5-4.278-.924-8.325.146-12.472,1.278" transform="translate(-22.484 -3.277)" fill="#d7c29f"/><path d="M272.238,82.727a22.2,22.2,0,0,1-8.4-.892c1.075-.6,6.3-.044,8.4.892" transform="translate(-23.166 -7.164)" fill="#d7c29f"/><path d="M288.607,44.343c2.175,1.559,5.848,8.8,5.948,11.817-.089-.235-.135-.347-.174-.459a31.124,31.124,0,0,0-3.936-8.334,9.916,9.916,0,0,0-1.043-1.283,3.378,3.378,0,0,1-.795-1.741" transform="translate(-25.341 -3.893)" fill="#d7c29f"/><path d="M292.915,49.045a25.381,25.381,0,0,0-3.725-5.281,3.315,3.315,0,0,0-.563-.6c-.775-.52-.88-1.386-1.212-2.176,1.407.618,5.116,6.034,5.5,8.059" transform="translate(-25.236 -3.599)" fill="#d7c29f"/><path d="M247.894,65.679a10.661,10.661,0,0,1-.619-2.567,13.856,13.856,0,0,1,.567-3.029,6.57,6.57,0,0,1,.537-1.51,4.943,4.943,0,0,1,.942-1.176,17.825,17.825,0,0,0-1.294,8.249l-.134.033" transform="translate(-21.712 -5.04)" fill="#d7c29f"/><path d="M259.721,37.1a5.489,5.489,0,0,1,2.144-.835c1.278-.084,2.552-.247,3.831-.315a7.1,7.1,0,0,1,1.766.158c.211.043.367.35.519.584a24.541,24.541,0,0,0-8.26.408" transform="translate(-22.805 -3.156)" fill="#d7c29f"/><path d="M292.682,68c-.438-1.521-.858-3.115-1.361-4.684-.339-1.06-.833-2.071-1.176-3.13a5.126,5.126,0,0,1-.027-1.4A29.844,29.844,0,0,1,292.682,68" transform="translate(-25.47 -5.161)" fill="#d7c29f"/><path d="M274.194,56.383a1.934,1.934,0,0,1-.389,1.481,13.34,13.34,0,0,0-2.778,4.878c-.031.1-.185.172-.282.257-.033-.108-.118-.23-.092-.321a16.127,16.127,0,0,1,3.54-6.3" transform="translate(-23.764 -4.951)" fill="#d7c29f"/><path d="M274.168,58.874a3.29,3.29,0,0,1-.511,1.874,21.189,21.189,0,0,0-1.347,2.374c-.048.086-.234.115-.358.121-.038,0-.145-.182-.12-.239.366-.855.711-1.721,1.14-2.544a17.15,17.15,0,0,1,1.087-1.629l.109.043" transform="translate(-23.868 -5.166)" fill="#d7c29f"/><path d="M290.082,61.921c.379,1.179.805,2.344,1.121,3.539.3,1.152.491,2.333.731,3.5.018.088.062.171.078.261.021.1.026.213.036.321-.078,0-.183.044-.231.007-.1-.073-.234-.184-.237-.285a16.237,16.237,0,0,0-1.5-5.972,2.75,2.75,0,0,1-.141-1.322l.141-.052" transform="translate(-25.457 -5.437)" fill="#d7c29f"/><path d="M289.723,64.307a22.351,22.351,0,0,1,1.186,4.781.914.914,0,0,1-.615-.755c-.21-.951-.536-1.876-.743-2.829a4.6,4.6,0,0,1,.052-1.193l.12,0" transform="translate(-25.421 -5.646)" fill="#d7c29f"/><path d="M273.988,61.927c-.048.379-.091.758-.145,1.137-.093.663-.1.662-.886.468l.919-1.678.112.073" transform="translate(-23.967 -5.431)" fill="#d7c29f"/><path d="M289.6,68.505c-.336-.183-.577-.3-.8-.446a.284.284,0,0,1-.1-.249,5.029,5.029,0,0,1,.526-1.1c.117.564.234,1.128.372,1.792" transform="translate(-25.349 -5.858)" fill="#d7c29f"/><path d="M267.406,35.3l-2.086-.182-.014-.065a9.243,9.243,0,0,1,1.493-.272c.222-.007.452.268.679.415l-.072.1" transform="translate(-23.295 -3.054)" fill="#d7c29f"/><path d="M249.633,67.587c.319-.173.582-.33.857-.462a33.045,33.045,0,0,1,8.385-2.568,39.28,39.28,0,0,1,22.71,2.566c1.612.673,3.176,1.461,4.744,2.234.437.215.48-.132.66-.317.244-.249.046-.369-.14-.493-.637-.425-1.246-.9-1.918-1.262a32.078,32.078,0,0,0-8.52-3.143,55.258,55.258,0,0,0-6.7-1.153,39.048,39.048,0,0,0-14.774,1.689,23.1,23.1,0,0,0-5.568,2.432l.262.478M286.21,70c-.938-.446-1.862-.89-2.789-1.328a43.233,43.233,0,0,0-9.688-3.282A39.122,39.122,0,0,0,252.1,67.11c-.729.262-1.419.632-2.168.971.164.265.294.453.4.653.121.223.254.219.481.125a34.536,34.536,0,0,1,6.841-2.141,49.422,49.422,0,0,1,13.74-.6,31.214,31.214,0,0,1,8.078,1.7c2.008.753,3.957,1.661,5.917,2.534.4.178.62.145.815-.348m-34.332.777c.306.339.536.626.8.873a.435.435,0,0,0,.383.022,33.3,33.3,0,0,1,6.051-1.906,36.553,36.553,0,0,1,14.265-.019,39.415,39.415,0,0,1,9.84,3.111.475.475,0,0,0,.4.006,8.467,8.467,0,0,0,.713-.66c-.863-.411-1.657-.856-2.5-1.179a39.261,39.261,0,0,0-9.8-2.371c-4.808-.532-9.59-.826-14.366.29a40.229,40.229,0,0,0-5.784,1.832m-.942-1.275c.445.814.445.814,1.207.494l.128-.054a34.226,34.226,0,0,1,10.082-2.394,44.3,44.3,0,0,1,7.759.231,38.038,38.038,0,0,1,14.252,3.668c.544.273.665.21.942-.39-10.773-6.135-25.68-5.347-34.371-1.556m32.029-5.324c.313.149.663.3,1,.481.244.13.369.051.448-.184.12-.363.269-.719.359-1.09a37.267,37.267,0,0,0,.785-6.15,37.775,37.775,0,0,0-2.744-17.611,4,4,0,0,0-.546-.744l-.121.085c.016.072.03.145.051.216a45.877,45.877,0,0,1,2.03,15.07,52.747,52.747,0,0,1-.935,9.228,3.631,3.631,0,0,1-.326.7m-29.7,8.057c.152.164.26.268.353.383a.762.762,0,0,0,1.036.217,12.522,12.522,0,0,1,1.836-.6,44.616,44.616,0,0,1,9.729-1.382,31.685,31.685,0,0,1,10.067,1.07c1.877.545,3.677,1.355,5.514,2.037a.633.633,0,0,0,.443.041,5.906,5.906,0,0,0,.742-.582c-9.827-4.091-19.634-5.147-29.721-1.184M274.426,61.62c.005-.222-.006-.419.017-.612a41.814,41.814,0,0,0,.162-9.816,41.883,41.883,0,0,0-3.411-13.4c-.518-1.091-1.138-2.133-1.723-3.191a.476.476,0,0,0-.3-.235c-.358-.027-.721-.006-1.121,0,.323.442.636.821.892,1.234a29.729,29.729,0,0,1,4.319,11.845,70.342,70.342,0,0,1,.246,13.133c-.053.96-.074.959.92,1.049m1.853-25.957c.274.571.518,1.03.718,1.507A34.688,34.688,0,0,1,279.58,48.7c.163,2.888.1,5.792.052,8.689a25.421,25.421,0,0,1-.52,5.339c.638.3.71.295.764-.131.278-2.158.635-4.311.793-6.478a49.324,49.324,0,0,0-.66-11.731,28.73,28.73,0,0,0-2.025-7.484,2.434,2.434,0,0,0-1.7-1.243m-3.993-1.039c.079.151.112.218.149.283a20.713,20.713,0,0,1,2.215,5.392c.541,2.312.964,4.654,1.4,6.99a45.627,45.627,0,0,1,.58,14.551c-.013.092.131.206.2.31a1.175,1.175,0,0,0,.233-.245.852.852,0,0,0,.047-.317c.178-2.338.375-4.676.526-7.016a40.127,40.127,0,0,0-.556-8.156c-.557-3.989-1.386-7.891-3.561-11.372a.571.571,0,0,0-.295-.236c-.278-.078-.568-.114-.94-.184M249.053,66.471c1.17-.555,2.3-1.176,3.5-1.642a39.265,39.265,0,0,1,17.206-2.54,41.1,41.1,0,0,1,10.015,2.094,24.729,24.729,0,0,1,7.542,3.649c.067.051.216-.007.327-.014-.034-.133-.023-.32-.109-.392a22.208,22.208,0,0,0-6.28-3.412,37.251,37.251,0,0,0-8.771-2.192,42.943,42.943,0,0,0-15.447.788,34.418,34.418,0,0,0-7.688,2.78c-.646.322-.633.348-.293.879m26.86-4.536c.041-.23.079-.409.106-.59a41.354,41.354,0,0,0,.157-7.714,77.993,77.993,0,0,0-1.358-9.514,26.329,26.329,0,0,0-3.195-9.355c-.057-.095-.134-.235-.218-.249-.4-.061-.814-.086-1.279-.13.069.137.1.206.136.267a30.272,30.272,0,0,1,3.513,8.127,51.738,51.738,0,0,1,1.627,9.606,40.856,40.856,0,0,1-.3,8.763,3.8,3.8,0,0,1-.168.587l.976.2M274.25,35.067c.059.112.089.18.129.241a20.354,20.354,0,0,1,2.45,6.031,61.4,61.4,0,0,1,1.418,9.134,64.768,64.768,0,0,1-.5,11.427c-.041.476.155.543.483.611.461.095.279-.308.333-.482a3.954,3.954,0,0,0,.145-.951c.1-1.928.25-3.857.276-5.786a53.844,53.844,0,0,0-.319-9.048,33.759,33.759,0,0,0-2.924-10.27,1.682,1.682,0,0,0-1.488-.907m7.152,39.5a1.744,1.744,0,0,0-.188-.116,28.326,28.326,0,0,0-5.833-2.09A36.949,36.949,0,0,0,262.8,71.8a37.962,37.962,0,0,0-7.62,1.488,2.072,2.072,0,0,1-.551.036c.021.072.043.144.064.216.1.09.213.173.307.272a.864.864,0,0,0,1.058.2,20.756,20.756,0,0,1,2.653-.76,41.848,41.848,0,0,1,10.332-.9,25.087,25.087,0,0,1,11.072,2.5c.644.339.7.308,1.283-.283M270.315,43.051a3.754,3.754,0,0,1-.189-.452c-.093-.335-.242-.368-.561-.222a20.486,20.486,0,0,0-6.214,4.435,31.741,31.741,0,0,0-4.963,6.758,29.009,29.009,0,0,0-2.626,5.964,9.4,9.4,0,0,0-.49,3.015,5.389,5.389,0,0,0,.606-.166.3.3,0,0,0,.163-.213,15.892,15.892,0,0,1,1.4-5.073,31.434,31.434,0,0,1,5.274-8.318,19.849,19.849,0,0,1,5.389-4.611c.708-.394,1.448-.732,2.214-1.116m8.307-6.347c.348.959.743,1.859,1.006,2.8a53.02,53.02,0,0,1,1.819,14.056,50.727,50.727,0,0,1-.912,9.229c-.077.43.029.534.567.658.437.1.309-.258.335-.426a63.387,63.387,0,0,0,.774-8.647,47.636,47.636,0,0,0-2.5-16.651,1.483,1.483,0,0,0-1.085-1.015M253.464,73.414a4.485,4.485,0,0,1-.416-.385c-.453-.472-.889-.906-1.291-1.371a22.336,22.336,0,0,1-5.287-19.929,22.747,22.747,0,0,1,29.3-16.952,22.011,22.011,0,0,1,6.529,3.344,22.864,22.864,0,0,1,7.639,26.909,22.964,22.964,0,0,1-2.516,4.577,19.507,19.507,0,0,1-1.181,1.691,17.674,17.674,0,0,1-1.572,1.531c-6.451,5.924-13.91,7.8-22.371,5.5a21.352,21.352,0,0,1-8.067-4.289Zm3.126-11.277c1-.063.989-.064,1.129-.795A8.1,8.1,0,0,1,258,60.181a35.717,35.717,0,0,1,5.273-9.962,16.2,16.2,0,0,1,5.274-4.649,19.773,19.773,0,0,1,1.915-.9c.466-.183.284-.437.189-.723-.132-.4-.354-.156-.539-.078A18.825,18.825,0,0,0,263.2,49.25a29.54,29.54,0,0,0-5.6,9.237c-.415,1.16-.669,2.378-1.017,3.651M278.6,76.34a28.589,28.589,0,0,0-10.3-2.048,31.419,31.419,0,0,0-10.3,1.5.96.96,0,0,0,.617.228c.829-.144,1.65-.338,2.475-.512a23.66,23.66,0,0,1,14.77,1.71.591.591,0,0,0,.384.071c.752-.286,1.494-.6,2.357-.948M253.942,62.905l.161.1c.156-.161.442-.318.448-.484a15.151,15.151,0,0,1,1.386-5.5,35.7,35.7,0,0,1,4.963-8.463,23.006,23.006,0,0,1,5.772-5.348c.962-.588,1.992-1.065,2.99-1.591-.146-.407-.147-.409-.481-.274a18.165,18.165,0,0,0-4.333,2.49,28.065,28.065,0,0,0-6.711,7.426,26.7,26.7,0,0,0-3.566,7.524,18.527,18.527,0,0,0-.63,4.115m21.132,14.829c-.006-.051-.013-.1-.018-.152a23.584,23.584,0,0,0-15.568-1.009c.508.213,1.079.583,1.553.485a16.051,16.051,0,0,1,7.064.106,12.381,12.381,0,0,1,3.934,1.156.2.2,0,0,0,.133.015q1.45-.3,2.9-.6M258.285,61.78c1.2-.058,1.3-.089,1.487-1.115a17.141,17.141,0,0,1,1.764-4.961,32.308,32.308,0,0,1,4.1-6.145,10.925,10.925,0,0,1,5.646-3.574l-.273-.91c-.416.213-.759.422-1.127.57a14.511,14.511,0,0,0-5.65,4.456,34.176,34.176,0,0,0-5.386,9.636,20.284,20.284,0,0,0-.565,2.044m21.733,13.666c-1.268-.483-2.428-1.007-3.638-1.366a29.887,29.887,0,0,0-8.5-1.07,39.42,39.42,0,0,0-11.189,1.433,2.777,2.777,0,0,1-.533.051c.615.644,1.163,1.106,1.919.537a1.051,1.051,0,0,1,.348-.113,31.812,31.812,0,0,1,20.5.8.878.878,0,0,0,1.1-.271m.351-37.788c.04.154.053.227.078.3a41.645,41.645,0,0,1,2.168,9.864,58.4,58.4,0,0,1-.538,15.491c-.072.454-.015.667.469.685.015-.146.026-.292.044-.436.255-1.959.56-3.913.76-5.878A48.1,48.1,0,0,0,281.434,38.8a1.729,1.729,0,0,0-1.065-1.147m-9,8.876c-.238.1-.474.209-.719.295a10.737,10.737,0,0,0-4.77,3.486,34.749,34.749,0,0,0-4.14,6.45,18.152,18.152,0,0,0-1.447,4.765c.288-.1.593-.106.706-.258a2.869,2.869,0,0,0,.379-.917c.129-.441.2-.9.329-1.339a23.366,23.366,0,0,1,2.332-4.938,15.7,15.7,0,0,1,6.909-6.405c.665-.328.668-.322.469-1.054a.4.4,0,0,0-.05-.086m-5.273-11.962c.066.081.124.151.181.223a27.683,27.683,0,0,1,6.3,15,48.651,48.651,0,0,1-.462,11.1c-.034.241-.076.391.259.431.308.036.409-.038.416-.338.062-2.405.172-4.81.191-7.215a32.982,32.982,0,0,0-2.634-14.093,24.873,24.873,0,0,0-2.561-4.617,1.248,1.248,0,0,0-1.687-.49m-4.306,26.653c.832.073.808.056,1.038-.653a31.667,31.667,0,0,1,1.212-3.415,18.77,18.77,0,0,1,4.619-6.236,15.119,15.119,0,0,1,2.688-1.9c.372-.208.443-.333.366-.67-.02-.086-.036-.172-.065-.306-.208.092-.39.165-.565.251-4.078,2.021-6.5,5.48-8.218,9.528-.461,1.087-.722,2.26-1.076,3.4M248.148,48.581c.185-.143.311-.249.445-.343.816-.568,1.6-1.194,2.457-1.69a33.805,33.805,0,0,1,10.058-3.577,21.331,21.331,0,0,1,2.919-.315,2.4,2.4,0,0,1,.751.225.328.328,0,0,0,.227.009c.261-.161.51-.342.764-.516a2.83,2.83,0,0,0-.938-.176,31.858,31.858,0,0,0-5.491.447,24.928,24.928,0,0,0-10.01,4.091,2.659,2.659,0,0,0-1.183,1.844m21.087-7.891c-.306-.751-.3-.794-.982-.867a24.921,24.921,0,0,0-3.289-.237c-1.99.05-3.988.122-5.96.363a26.373,26.373,0,0,0-6.85,2.226,2.425,2.425,0,0,0-1.111,1.161,3.148,3.148,0,0,0,.719-.265,27.418,27.418,0,0,1,14.871-2.738,18.134,18.134,0,0,1,2.1.416,1.845,1.845,0,0,0,.505-.058M249.29,45.962c.434-.259.788-.461,1.134-.678a25.955,25.955,0,0,1,14.214-3.763,12.526,12.526,0,0,1,1.845.283.46.46,0,0,0,.255-.011c.342-.163.676-.343,1.127-.577a6.655,6.655,0,0,0-.805-.162c-.887-.052-1.775-.123-2.662-.118a25.483,25.483,0,0,0-10.516,1.9c-1.034.466-2.068.938-3.119,1.366a1.459,1.459,0,0,0-.836.637c-.187.348-.39.687-.638,1.121m10.855,1.357a13.715,13.715,0,0,0-5.284,1.867,25.037,25.037,0,0,0-7.964,7.1,4.732,4.732,0,0,0-.329.732l.13.069a.952.952,0,0,0,.167-.138,27.661,27.661,0,0,1,5.854-5.47,15.588,15.588,0,0,1,6.525-3.119c.075-.013.146-.1.2-.168.223-.269.44-.545.7-.869m11.747,3.388c-.147.1-.29.176-.414.278-.449.371-.909.731-1.334,1.128a14.6,14.6,0,0,0-4.774,8.139c-.141.788-.019.912.784.732a.369.369,0,0,0,.2-.234c.281-.936.49-1.9.833-2.81a12.976,12.976,0,0,1,4.319-6,.939.939,0,0,0,.386-1.231M248.857,65.082c.724-.255.724-.255.66-.952-.005-.061-.011-.122-.016-.183a20.351,20.351,0,0,1,1.282-8.351c.279-.8.584-1.59.877-2.384l-.095-.088a5.7,5.7,0,0,0-1.165,1.24,16.774,16.774,0,0,0-1.811,6.467,14.347,14.347,0,0,0,.268,4.252m4.857-13.435a2.938,2.938,0,0,0-1.456,1.788c-.39,1.031-.761,2.07-1.095,3.12a19.078,19.078,0,0,0-.972,7.424c.012.143.04.286.061.438.594-.206.614-.205.639-.771a29.717,29.717,0,0,1,1.3-7.68c.457-1.439,1-2.852,1.519-4.319M271.8,49.5c-3.07.991-8.2,8.088-8.381,11.617a7.076,7.076,0,0,1,.732-.04c.3.013.415-.08.457-.4a13.746,13.746,0,0,1,2.52-6.155,18.241,18.241,0,0,1,4.291-4.26c.265-.192.642-.283.381-.762m-13.137-.282a1.377,1.377,0,0,0-1.311.76c-.506.784-1.079,1.533-1.507,2.357-.57,1.1-1.026,2.26-1.536,3.392a20.126,20.126,0,0,0-1.65,7.451,1.346,1.346,0,0,0,.022.2c.471,0,.57-.246.589-.649a21.473,21.473,0,0,1,3.405-10.373c.65-1.052,1.322-2.091,1.988-3.142M246.9,53.351c.371-.4.656-.7.933-1s.531-.637.826-.926a24.826,24.826,0,0,1,10.877-5.992,4.337,4.337,0,0,1,2.522-.19.262.262,0,0,0,.2-.075c.21-.189.41-.39.692-.662-.379.025-.639.028-.895.06a26.478,26.478,0,0,0-7.181,2.072,23.582,23.582,0,0,0-7.257,4.86,2.571,2.571,0,0,0-.716,1.856m14.531-7.444c-.013-.045-.025-.09-.036-.136a17.345,17.345,0,0,0-2.446.517c-1.439.519-2.859,1.106-4.241,1.763a18.673,18.673,0,0,0-5.716,3.955c-.672.714-1.33,1.441-2.017,2.141-.372.379-.255.8-.282,1.291a26.334,26.334,0,0,1,9.106-7.5,14.288,14.288,0,0,1,4.388-1.321,1.689,1.689,0,0,0,1.243-.708m5.638,15.052c.62.057.616.055.777-.5.089-.309.188-.617.3-.918a15.009,15.009,0,0,1,3.424-5.506,1.8,1.8,0,0,0,.444-1.683c-2.665,1.749-4.853,6.394-4.946,8.608m23.6-2.612c.355-1.875-3.317-10.7-5.095-12.239.127.736.246,1.442.375,2.147a.748.748,0,0,0,.119.242c.418.676.889,1.324,1.247,2.031a48.809,48.809,0,0,1,3.353,7.819M252.914,41.142c4.933-2.409,10.161-2.478,15.44-2.094-.113-.3-.113-.3-.763-.465a14.538,14.538,0,0,0-5.565-.319,43.428,43.428,0,0,0-7.793,1.784,2.989,2.989,0,0,0-1.319,1.095m3.459,8.894a2.794,2.794,0,0,0-1.93,1.754c-.146.482-.379.936-.564,1.406a32.7,32.7,0,0,0-1.973,6.921c-.192,1.228-.294,2.47-.436,3.706l.2.086c.119-.167.333-.328.341-.5a20.917,20.917,0,0,1,1.379-7.182c.556-1.326,1.121-2.65,1.733-3.951.357-.755.815-1.463,1.253-2.239m-8.962.805c.214-.187.391-.348.576-.5.91-.749,1.771-1.571,2.743-2.228a27.874,27.874,0,0,1,9.38-3.905,15.707,15.707,0,0,1,3.188-.365,1.1,1.1,0,0,0,.951-.509,14.077,14.077,0,0,0-2.2.153,38.02,38.02,0,0,0-7.386,2.079,20.16,20.16,0,0,0-6.59,3.951,1.9,1.9,0,0,0-.662,1.325m38.866-.958-.114.041a6.088,6.088,0,0,0,.381,2.114,32.719,32.719,0,0,1,3.5,9.594,2.185,2.185,0,0,1,.013.338l.174-.044a2.947,2.947,0,0,0,.178-1.024,26.608,26.608,0,0,0-.926-3.873c-.636-1.755-1.452-3.444-2.213-5.152-.3-.677-.659-1.33-.991-1.994m3.152,14.292.182.009a7.958,7.958,0,0,0-.02-1.329,34.949,34.949,0,0,0-2.04-7.2c-.348-.843-.737-1.669-1.107-2.5l-.168.034a6.679,6.679,0,0,0,.161,1.919,57.887,57.887,0,0,1,2.993,9.067m-34.249-25.1c4.147-1.133,8.193-2.2,12.473-1.278-.157-.222-.327-.46-.533-.5a22.2,22.2,0,0,0-9.611.569,4.5,4.5,0,0,0-2.33,1.206m15.488,39.447c-2.1-.935-7.33-1.49-8.4-.892a22.178,22.178,0,0,0,8.4.892M284.861,43.4a3.374,3.374,0,0,0,.795,1.741,9.916,9.916,0,0,1,1.043,1.283,31.124,31.124,0,0,1,3.936,8.334c.039.112.085.223.174.459-.1-3.02-3.774-10.259-5.948-11.818m4.412,5c-.386-2.025-4.095-7.442-5.5-8.059.333.791.437,1.657,1.212,2.176a3.253,3.253,0,0,1,.563.6,25.351,25.351,0,0,1,3.726,5.281m-41.5,15.193.133-.033a17.808,17.808,0,0,1,1.294-8.248,4.9,4.9,0,0,0-.943,1.174A6.655,6.655,0,0,0,247.725,58a13.883,13.883,0,0,0-.567,3.028,10.66,10.66,0,0,0,.62,2.568M258.512,36.9a24.563,24.563,0,0,1,8.26-.409c-.152-.233-.309-.541-.519-.584a7.108,7.108,0,0,0-1.766-.158c-1.28.067-2.553.231-3.832.315a5.466,5.466,0,0,0-2.143.836m30.295,28.887a29.858,29.858,0,0,0-2.565-9.218,5.161,5.161,0,0,0,.027,1.4c.344,1.059.836,2.071,1.176,3.131.5,1.568.924,3.163,1.362,4.684m-16.783-11.4a16.15,16.15,0,0,0-3.54,6.3c-.026.09.059.213.093.32.1-.085.25-.152.281-.256a13.333,13.333,0,0,1,2.779-4.878,1.931,1.931,0,0,0,.388-1.48m-.129,2.276-.109-.042a17.022,17.022,0,0,0-1.087,1.628c-.429.823-.774,1.69-1.14,2.545-.025.057.081.241.12.239.124-.006.309-.036.358-.122a21.1,21.1,0,0,1,1.347-2.374,3.294,3.294,0,0,0,.511-1.875m14.324,2.776-.141.052a2.761,2.761,0,0,0,.141,1.322,16.238,16.238,0,0,1,1.5,5.972c0,.1.138.212.236.285.048.036.152,0,.231-.007-.011-.108-.016-.216-.036-.322-.017-.088-.06-.172-.078-.26-.241-1.169-.428-2.351-.732-3.5-.315-1.195-.743-2.361-1.121-3.539m-.323,2.176-.12,0a4.6,4.6,0,0,0-.052,1.193c.207.951.534,1.877.743,2.829a.916.916,0,0,0,.616.755,22.406,22.406,0,0,0-1.187-4.781m-14.28-2.165-.112-.073-.919,1.678c.79.194.793.2.886-.468.054-.379.1-.758.145-1.137M285.85,65.6c-.139-.664-.255-1.229-.373-1.793a5.053,5.053,0,0,0-.525,1.1.281.281,0,0,0,.1.248c.223.146.464.264.8.447M265.706,35.2l.072-.1c-.226-.147-.457-.422-.679-.415a9.243,9.243,0,0,0-1.493.272l.014.065,2.086.182" transform="translate(-21.595 -2.955)" fill="#bc8e40"/></g></svg>